M48
; DRILL file KiCad 10.0.4-10.0.4~ubuntu22.04.1 date 2026-08-26T15:29:55
; FORMAT={-:-/ absolute / metric / decimal}
; #@! TF.CreationDate,2026-08-26T15:29:55+05:30
; #@! TF.GenerationSoftware,Kicad,Pcbnew,10.0.4-10.0.4~ubuntu22.04.1
; #@! TF.FileFunction,Plated,1,2,PTH
FMAT,2
METRIC
; #@! TA.AperFunction,Plated,PTH,ComponentDrill
T1C0.200
; #@! TA.AperFunction,Plated,PTH,ViaDrill
T2C0.300
; #@! TA.AperFunction,Plated,PTH,ComponentDrill
T3C1.000
; #@! TA.AperFunction,Plated,PTH,ComponentDrill
T4C1.020
; #@! TA.AperFunction,Plated,PTH,ComponentDrill
T5C1.100
%
G90
G05
T1
X173.11Y-67.15
X173.11Y-68.25
X173.66Y-66.6
X173.66Y-67.7
X173.66Y-68.8
X174.21Y-67.15
X174.21Y-68.25
X174.76Y-66.6
X174.76Y-67.7
X174.76Y-68.8
X175.31Y-67.15
X175.31Y-68.25
T2
X147.5Y-110.56
X157.0Y-110.0
X162.5Y-72.0
X163.0Y-63.5
X163.5Y-83.5
X164.5Y-109.0
X166.5Y-76.0
X166.5Y-109.0
X168.0Y-76.0
X168.0Y-109.0
X169.5Y-109.0
X173.5Y-77.0
X175.0Y-78.0
X177.5Y-76.0
X177.5Y-77.0
X178.5Y-64.5
X182.5Y-77.5
X183.5Y-72.5
X183.5Y-118.0
X186.0Y-124.5
T3
X139.145Y-126.84
X139.145Y-129.38
X141.685Y-126.84
X141.685Y-129.38
X144.225Y-126.84
X144.225Y-129.38
X146.765Y-126.84
X146.765Y-129.38
X152.65Y-126.84
X152.65Y-129.38
X155.19Y-126.84
X155.19Y-129.38
X161.075Y-126.84
X161.075Y-129.38
X163.615Y-126.84
X163.615Y-129.38
X166.735Y-80.46
X166.735Y-83.0
X166.735Y-85.54
X169.275Y-80.46
X169.275Y-83.0
X169.275Y-85.54
X169.5Y-126.84
X169.5Y-129.38
X172.04Y-126.84
X172.04Y-129.38
X177.735Y-126.84
X177.735Y-129.38
X180.275Y-126.84
X180.275Y-129.38
X186.35Y-126.795
X186.35Y-129.335
X188.89Y-126.795
X188.89Y-129.335
T4
X139.98Y-95.22
X139.98Y-113.0
X140.21Y-101.57
X140.21Y-104.11
X140.21Y-106.65
X142.52Y-95.22
X142.52Y-113.0
X145.06Y-95.22
X145.06Y-113.0
X147.6Y-95.22
X147.6Y-113.0
X150.14Y-95.22
X150.14Y-113.0
X152.68Y-95.22
X152.68Y-113.0
X155.22Y-95.22
X155.22Y-113.0
X157.76Y-95.22
X157.76Y-113.0
X160.3Y-95.22
X160.3Y-113.0
X162.84Y-95.22
X162.84Y-113.0
X165.38Y-95.22
X165.38Y-113.0
X167.92Y-95.22
X167.92Y-113.0
X170.46Y-95.22
X170.46Y-113.0
X173.0Y-95.22
X173.0Y-113.0
X175.54Y-95.22
X175.54Y-113.0
X178.08Y-95.22
X178.08Y-113.0
X180.62Y-95.22
X180.62Y-113.0
X183.16Y-95.22
X183.16Y-113.0
X185.7Y-95.22
X185.7Y-113.0
X188.24Y-95.22
X188.24Y-113.0
T5
X141.75Y-58.75
X141.75Y-63.25
X141.75Y-69.25
X141.75Y-73.75
X141.75Y-81.25
X141.75Y-85.75
X148.25Y-58.75
X148.25Y-63.25
X148.25Y-69.25
X148.25Y-73.75
X148.25Y-81.25
X148.25Y-85.75
M30
