%TF.GenerationSoftware,KiCad,Pcbnew,10.0.4-10.0.4~ubuntu22.04.1*%
%TF.CreationDate,2026-08-26T15:30:00+05:30*%
%TF.ProjectId,librelab,6c696272-656c-4616-922e-6b696361645f,rev?*%
%TF.SameCoordinates,Original*%
%TF.FileFunction,Copper,L2,Bot*%
%TF.FilePolarity,Positive*%
%FSLAX46Y46*%
G04 Gerber Fmt 4.6, Leading zero omitted, Abs format (unit mm)*
G04 Created by KiCad (PCBNEW 10.0.4-10.0.4~ubuntu22.04.1) date 2026-08-26 15:30:00*
%MOMM*%
%LPD*%
G01*
G04 APERTURE LIST*
%TA.AperFunction,ComponentPad*%
%ADD10C,2.000000*%
%TD*%
%TA.AperFunction,ComponentPad*%
%ADD11O,1.700000X1.700000*%
%TD*%
%TA.AperFunction,ComponentPad*%
%ADD12R,1.700000X1.700000*%
%TD*%
%TA.AperFunction,ComponentPad*%
%ADD13C,1.700000*%
%TD*%
%TA.AperFunction,HeatsinkPad*%
%ADD14C,0.600000*%
%TD*%
%TA.AperFunction,ViaPad*%
%ADD15C,0.600000*%
%TD*%
%TA.AperFunction,Conductor*%
%ADD16C,0.200000*%
%TD*%
G04 APERTURE END LIST*
D10*
%TO.P,SW3,2,2_2*%
%TO.N,GND*%
X148250000Y-85750000D03*
X141750000Y-85750000D03*
%TO.P,SW3,1,1_1*%
%TO.N,/RST*%
X148250000Y-81250000D03*
X141750000Y-81250000D03*
%TD*%
D11*
%TO.P,U1,43,SWDIO_43*%
%TO.N,unconnected-(U1-SWDIO-Pad43)*%
X140210000Y-106650000D03*
D12*
%TO.P,U1,42,GND_42*%
%TO.N,GND*%
X140210000Y-104110000D03*
D11*
%TO.P,U1,41,SWCLK_41*%
%TO.N,unconnected-(U1-SWCLK-Pad41)*%
X140210000Y-101570000D03*
%TO.P,U1,40,VBUS_40*%
%TO.N,+5V*%
X188240000Y-113000000D03*
%TO.P,U1,39,VSYS_39*%
%TO.N,unconnected-(U1-VSYS-Pad39)*%
X185700000Y-113000000D03*
D12*
%TO.P,U1,38,GND_38*%
%TO.N,GND*%
X183160000Y-113000000D03*
D11*
%TO.P,U1,37,3V3_EN_37*%
%TO.N,unconnected-(U1-3V3_EN-Pad37)*%
X180620000Y-113000000D03*
%TO.P,U1,36,3V3_36*%
%TO.N,+3V3*%
X178080000Y-113000000D03*
%TO.P,U1,35,ADC_VREF_35*%
%TO.N,unconnected-(U1-ADC_VREF-Pad35)*%
X175540000Y-113000000D03*
%TO.P,U1,34,GPIO28_ADC2_34*%
%TO.N,/A2*%
X173000000Y-113000000D03*
D12*
%TO.P,U1,33,AGND_33*%
%TO.N,/AGND*%
X170460000Y-113000000D03*
D11*
%TO.P,U1,32,GPIO27_ADC1_32*%
%TO.N,/A1*%
X167920000Y-113000000D03*
%TO.P,U1,31,GPIO26_ADC0_31*%
%TO.N,/A0*%
X165380000Y-113000000D03*
%TO.P,U1,30,RUN_30*%
%TO.N,/RST*%
X162840000Y-113000000D03*
%TO.P,U1,29,GPIO22_29*%
%TO.N,/D11*%
X160300000Y-113000000D03*
D12*
%TO.P,U1,28,GND_28*%
%TO.N,GND*%
X157760000Y-113000000D03*
D11*
%TO.P,U1,27,GPIO21_27*%
%TO.N,/D10*%
X155220000Y-113000000D03*
%TO.P,U1,26,GPIO20_26*%
%TO.N,/D9*%
X152680000Y-113000000D03*
%TO.P,U1,25,GPIO19_25*%
%TO.N,/D8*%
X150140000Y-113000000D03*
%TO.P,U1,24,GPIO18_24*%
%TO.N,/D7*%
X147600000Y-113000000D03*
D12*
%TO.P,U1,23,GND_23*%
%TO.N,GND*%
X145060000Y-113000000D03*
D11*
%TO.P,U1,22,GPIO17_22*%
%TO.N,/D6*%
X142520000Y-113000000D03*
%TO.P,U1,21,GPIO16_21*%
%TO.N,/D5*%
X139980000Y-113000000D03*
%TO.P,U1,20,GPIO15_20*%
%TO.N,/D4*%
X139980000Y-95220000D03*
%TO.P,U1,19,GPIO14_19*%
%TO.N,/D3*%
X142520000Y-95220000D03*
D12*
%TO.P,U1,18,GND_18*%
%TO.N,GND*%
X145060000Y-95220000D03*
D11*
%TO.P,U1,17,GPIO13_17*%
%TO.N,/D2*%
X147600000Y-95220000D03*
%TO.P,U1,16,GPIO12_16*%
%TO.N,/D1*%
X150140000Y-95220000D03*
%TO.P,U1,15,GPIO11_15*%
%TO.N,/D0*%
X152680000Y-95220000D03*
%TO.P,U1,14,GPIO10_14*%
%TO.N,/S1*%
X155220000Y-95220000D03*
D12*
%TO.P,U1,13,GND_13*%
%TO.N,GND*%
X157760000Y-95220000D03*
D11*
%TO.P,U1,12,GPIO9_12*%
%TO.N,/RX*%
X160300000Y-95220000D03*
%TO.P,U1,11,GPIO8_11*%
%TO.N,/TX*%
X162840000Y-95220000D03*
%TO.P,U1,10,GPIO7_10*%
%TO.N,/S0*%
X165380000Y-95220000D03*
%TO.P,U1,9,GPIO6_9*%
%TO.N,/READY*%
X167920000Y-95220000D03*
D12*
%TO.P,U1,8,GND_8*%
%TO.N,unconnected-(U1-GND-Pad8)*%
X170460000Y-95220000D03*
D11*
%TO.P,U1,7,GPIO5_7*%
%TO.N,/CS*%
X173000000Y-95220000D03*
%TO.P,U1,6,GPIO4_6*%
%TO.N,/IO2*%
X175540000Y-95220000D03*
%TO.P,U1,5,GPIO3_5*%
%TO.N,/MOSI*%
X178080000Y-95220000D03*
%TO.P,U1,4,GPIO2_4*%
%TO.N,/SCK*%
X180620000Y-95220000D03*
D12*
%TO.P,U1,3,GND_3*%
%TO.N,GND*%
X183160000Y-95220000D03*
D11*
%TO.P,U1,2,GPIO1_2*%
%TO.N,/SCL*%
X185700000Y-95220000D03*
%TO.P,U1,1,GPIO0_1*%
%TO.N,/SDA*%
X188240000Y-95220000D03*
%TD*%
D12*
%TO.P,J1,1,Pin_1_1*%
%TO.N,/D0*%
X146765000Y-126840000D03*
D13*
%TO.P,J1,2,Pin_2_2*%
%TO.N,/D1*%
X146765000Y-129380000D03*
%TO.P,J1,3,Pin_3_3*%
%TO.N,/D2*%
X144225000Y-126840000D03*
%TO.P,J1,4,Pin_4_4*%
%TO.N,/D3*%
X144225000Y-129380000D03*
%TO.P,J1,5,Pin_5_5*%
%TO.N,/D7*%
X141685000Y-126840000D03*
%TO.P,J1,6,Pin_6_6*%
%TO.N,/D6*%
X141685000Y-129380000D03*
%TO.P,J1,7,Pin_7_7*%
%TO.N,/D5*%
X139145000Y-126840000D03*
%TO.P,J1,8,Pin_8_8*%
%TO.N,/D4*%
X139145000Y-129380000D03*
%TD*%
D12*
%TO.P,J6,1,Pin_1_1*%
%TO.N,/TX*%
X180275000Y-126840000D03*
D13*
%TO.P,J6,2,Pin_2_2*%
%TO.N,/S0*%
X180275000Y-129380000D03*
%TO.P,J6,3,Pin_3_3*%
%TO.N,/RX*%
X177735000Y-126840000D03*
%TO.P,J6,4,Pin_4_4*%
%TO.N,/S1*%
X177735000Y-129380000D03*
%TD*%
D12*
%TO.P,J2,1,Pin_1_1*%
%TO.N,/D10*%
X155190000Y-126840000D03*
D13*
%TO.P,J2,2,Pin_2_2*%
%TO.N,/D11*%
X155190000Y-129380000D03*
%TO.P,J2,3,Pin_3_3*%
%TO.N,/D9*%
X152650000Y-126840000D03*
%TO.P,J2,4,Pin_4_4*%
%TO.N,/D8*%
X152650000Y-129380000D03*
%TD*%
D12*
%TO.P,J7,1,Pin_1_1*%
%TO.N,GND*%
X188890000Y-126795000D03*
D13*
%TO.P,J7,2,Pin_2_2*%
%TO.N,+3V3*%
X188890000Y-129335000D03*
%TO.P,J7,3,Pin_3_3*%
%TO.N,/SDA*%
X186350000Y-126795000D03*
%TO.P,J7,4,Pin_4_4*%
%TO.N,/SCL*%
X186350000Y-129335000D03*
%TD*%
D12*
%TO.P,J4,1,Pin_1_1*%
%TO.N,/AGND*%
X172040000Y-126840000D03*
D13*
%TO.P,J4,2,Pin_2_2*%
%TO.N,/A2*%
X172040000Y-129380000D03*
%TO.P,J4,3,Pin_3_3*%
%TO.N,/A1*%
X169500000Y-126840000D03*
%TO.P,J4,4,Pin_4_4*%
%TO.N,/A0*%
X169500000Y-129380000D03*
%TD*%
D12*
%TO.P,J3,1,Pin_1_1*%
%TO.N,GND*%
X163615000Y-126840000D03*
D13*
%TO.P,J3,2,Pin_2_2*%
X163615000Y-129380000D03*
%TO.P,J3,3,Pin_3_3*%
X161075000Y-126840000D03*
%TO.P,J3,4,Pin_4_4*%
X161075000Y-129380000D03*
%TD*%
D10*
%TO.P,SW2,2,2_2*%
%TO.N,GND*%
X148250000Y-63250000D03*
X141750000Y-63250000D03*
%TO.P,SW2,1,1_1*%
%TO.N,/EN*%
X148250000Y-58750000D03*
X141750000Y-58750000D03*
%TD*%
%TO.P,SW1,2,2_2*%
%TO.N,GND*%
X148250000Y-73750000D03*
X141750000Y-73750000D03*
%TO.P,SW1,1,1_1*%
%TO.N,/IO9*%
X148250000Y-69250000D03*
X141750000Y-69250000D03*
%TD*%
D14*
%TO.P,U2,19,GND_19*%
%TO.N,GND*%
X173110000Y-67150000D03*
X173110000Y-68250000D03*
X173660000Y-66600000D03*
X173660000Y-67700000D03*
X173660000Y-68800000D03*
X174210000Y-67150000D03*
X174210000Y-68250000D03*
X174760000Y-66600000D03*
X174760000Y-67700000D03*
X174760000Y-68800000D03*
X175310000Y-67150000D03*
X175310000Y-68250000D03*
%TD*%
D12*
%TO.P,J5,1,Pin_1_1*%
%TO.N,unconnected-(J5-Pin_1-Pad1)*%
X169275000Y-85540000D03*
D13*
%TO.P,J5,2,Pin_2_2*%
%TO.N,unconnected-(J5-Pin_2-Pad2)*%
X166735000Y-85540000D03*
%TO.P,J5,3,Pin_3_3*%
%TO.N,/RX*%
X169275000Y-83000000D03*
%TO.P,J5,4,Pin_4_4*%
%TO.N,/TX*%
X166735000Y-83000000D03*
%TO.P,J5,5,Pin_5_5*%
%TO.N,/TXD*%
X169275000Y-80460000D03*
%TO.P,J5,6,Pin_6_6*%
%TO.N,/RXD*%
X166735000Y-80460000D03*
%TD*%
D15*
%TO.N,GND*%
X183500000Y-118000000D03*
X182500000Y-77500000D03*
X186000000Y-124500000D03*
X157000000Y-110000000D03*
X147500000Y-110560000D03*
%TO.N,/SCK*%
X168000000Y-76000000D03*
%TO.N,/MOSI*%
X166500000Y-76000000D03*
%TO.N,/IO2*%
X178500000Y-64500000D03*
%TO.N,/CS*%
X183500000Y-72500000D03*
%TO.N,/READY*%
X163500000Y-83500000D03*
%TO.N,/S0*%
X169500000Y-109000000D03*
%TO.N,/TX*%
X168000000Y-109000000D03*
%TO.N,/RX*%
X166500000Y-109000000D03*
%TO.N,/S1*%
X164500000Y-109000000D03*
%TO.N,/EN*%
X163000000Y-63500000D03*
%TO.N,/IO9*%
X162500000Y-72000000D03*
%TO.N,/TXD*%
X177500000Y-77000000D03*
X175000000Y-78000000D03*
%TO.N,/RXD*%
X177500000Y-76000000D03*
X173500000Y-77000000D03*
%TD*%
%TO.N,GND*%
D16*
X147500000Y-110560000D02*
X147500000Y-110500000D01*
X183160000Y-78160000D02*
X182500000Y-77500000D01*
X157760000Y-110760000D02*
X157000000Y-110000000D01*
X157760000Y-113000000D02*
X157760000Y-110760000D01*
X183160000Y-95220000D02*
X183160000Y-78160000D01*
X145060000Y-113000000D02*
X147500000Y-110560000D01*
%TO.N,/SDA*%
X184160000Y-111850000D02*
X183000000Y-110690000D01*
X184310000Y-111850000D02*
X184160000Y-111850000D01*
X183000000Y-100460000D02*
X188240000Y-95220000D01*
X186350000Y-126795000D02*
X184310000Y-124755000D01*
X184310000Y-124755000D02*
X184310000Y-111850000D01*
X183000000Y-110690000D02*
X183000000Y-100460000D01*
%TO.N,/SCL*%
X185700000Y-95700000D02*
X181500000Y-99900000D01*
X182010000Y-112763654D02*
X182010000Y-124995000D01*
X181500000Y-99900000D02*
X181500000Y-112253654D01*
X182010000Y-124995000D02*
X186350000Y-129335000D01*
X181500000Y-112253654D02*
X182010000Y-112763654D01*
X185700000Y-95220000D02*
X185700000Y-95700000D01*
%TO.N,/SCK*%
X168000000Y-76000000D02*
X180620000Y-88620000D01*
X180620000Y-88620000D02*
X180620000Y-95220000D01*
%TO.N,/MOSI*%
X166500000Y-76000000D02*
X178080000Y-87580000D01*
X178080000Y-87580000D02*
X178080000Y-95220000D01*
%TO.N,/IO2*%
X178500000Y-64500000D02*
X179000000Y-65000000D01*
X179000000Y-69000000D02*
X177000000Y-71000000D01*
X177000000Y-71000000D02*
X169500000Y-71000000D01*
X163000000Y-79000000D02*
X165585000Y-81585000D01*
X163000000Y-77500000D02*
X163085000Y-77585000D01*
X163085000Y-77585000D02*
X163085000Y-78915000D01*
X174788654Y-95220000D02*
X175540000Y-95220000D01*
X179000000Y-65000000D02*
X179000000Y-69000000D01*
X169500000Y-71000000D02*
X163000000Y-77500000D01*
X163085000Y-78915000D02*
X163000000Y-79000000D01*
X165585000Y-86016346D02*
X174788654Y-95220000D01*
X165585000Y-81585000D02*
X165585000Y-86016346D01*
%TO.N,/CS*%
X183500000Y-72500000D02*
X184310000Y-73310000D01*
X184310000Y-96370000D02*
X183180000Y-97500000D01*
X184310000Y-73310000D02*
X184310000Y-96370000D01*
X175280000Y-97500000D02*
X173000000Y-95220000D01*
X183180000Y-97500000D02*
X175280000Y-97500000D01*
%TO.N,/READY*%
X163500000Y-90800000D02*
X167920000Y-95220000D01*
X163500000Y-83500000D02*
X163500000Y-90800000D01*
%TO.N,/S0*%
X169500000Y-99340000D02*
X169500000Y-109000000D01*
X165380000Y-95220000D02*
X169500000Y-99340000D01*
%TO.N,/TX*%
X162840000Y-95220000D02*
X168000000Y-100380000D01*
X168000000Y-100380000D02*
X168000000Y-109000000D01*
%TO.N,/RX*%
X166500000Y-101420000D02*
X166500000Y-109000000D01*
X160300000Y-95220000D02*
X166500000Y-101420000D01*
%TO.N,/S1*%
X164500000Y-104500000D02*
X164500000Y-109000000D01*
X155220000Y-95220000D02*
X164500000Y-104500000D01*
%TO.N,/D4*%
X137800000Y-97400000D02*
X137800001Y-128035001D01*
X137800001Y-128035001D02*
X139145000Y-129380000D01*
X139980000Y-95220000D02*
X137800000Y-97400000D01*
%TO.N,/D5*%
X138200000Y-114780000D02*
X138200000Y-125895000D01*
X138200000Y-125895000D02*
X139145000Y-126840000D01*
X139980000Y-113000000D02*
X138200000Y-114780000D01*
%TO.N,/D6*%
X140535000Y-128230000D02*
X141685000Y-129380000D01*
X142520000Y-113000000D02*
X140535000Y-114985000D01*
X140535000Y-114985000D02*
X140535000Y-128230000D01*
%TO.N,/D7*%
X141685000Y-118915000D02*
X141685000Y-126840000D01*
X147600000Y-113000000D02*
X141685000Y-118915000D01*
%TO.N,/D8*%
X150140000Y-126870000D02*
X152650000Y-129380000D01*
X150140000Y-113000000D02*
X150140000Y-126870000D01*
%TO.N,/D9*%
X152680000Y-126810000D02*
X152650000Y-126840000D01*
X152680000Y-113000000D02*
X152680000Y-126810000D01*
%TO.N,/D10*%
X155220000Y-113000000D02*
X155220000Y-126810000D01*
X155220000Y-126810000D02*
X155190000Y-126840000D01*
%TO.N,/D11*%
X158500000Y-114800000D02*
X158500000Y-126070000D01*
X158500000Y-126070000D02*
X155190000Y-129380000D01*
X160300000Y-113000000D02*
X158500000Y-114800000D01*
%TO.N,/A0*%
X165380000Y-113000000D02*
X165380000Y-125260000D01*
X165380000Y-125260000D02*
X169500000Y-129380000D01*
%TO.N,/A1*%
X167920000Y-113000000D02*
X169500000Y-114580000D01*
X169500000Y-114580000D02*
X169500000Y-126840000D01*
%TO.N,/AGND*%
X170460000Y-125260000D02*
X172040000Y-126840000D01*
X170460000Y-113000000D02*
X170460000Y-125260000D01*
%TO.N,/A2*%
X173000000Y-113000000D02*
X173850000Y-113850000D01*
X173850000Y-113850000D02*
X173850000Y-127570000D01*
X173850000Y-127570000D02*
X172040000Y-129380000D01*
%TO.N,/EN*%
X153000000Y-63500000D02*
X163000000Y-63500000D01*
X148250000Y-58750000D02*
X153000000Y-63500000D01*
%TO.N,/IO9*%
X151000000Y-72000000D02*
X162500000Y-72000000D01*
X148250000Y-69250000D02*
X151000000Y-72000000D01*
X141750000Y-69250000D02*
X148250000Y-69250000D01*
%TO.N,/TXD*%
X175000000Y-78000000D02*
X176000000Y-77000000D01*
X176000000Y-77000000D02*
X177500000Y-77000000D01*
%TO.N,/RXD*%
X173500000Y-77000000D02*
X174500000Y-76000000D01*
X174500000Y-76000000D02*
X177500000Y-76000000D01*
%TD*%
%TA.AperFunction,Conductor*%
%TO.N,GND*%
G36*
X158443039Y-54520185D02*
G01*
X158488794Y-54572989D01*
X158500000Y-54624500D01*
X158500000Y-61000000D01*
X187500000Y-61000000D01*
X187500000Y-54624500D01*
X187519685Y-54557461D01*
X187572489Y-54511706D01*
X187624000Y-54500500D01*
X190029108Y-54500500D01*
X190090125Y-54500500D01*
X190099853Y-54500881D01*
X190304988Y-54517026D01*
X190324197Y-54520069D01*
X190519531Y-54566964D01*
X190538019Y-54572971D01*
X190723617Y-54649849D01*
X190740949Y-54658680D01*
X190912226Y-54763639D01*
X190927964Y-54775073D01*
X191080710Y-54905531D01*
X191094468Y-54919289D01*
X191224926Y-55072035D01*
X191236364Y-55087778D01*
X191341318Y-55259049D01*
X191350151Y-55276384D01*
X191427024Y-55461968D01*
X191433037Y-55480475D01*
X191479929Y-55675797D01*
X191482973Y-55695015D01*
X191499118Y-55900146D01*
X191499500Y-55909875D01*
X191499500Y-133090124D01*
X191499118Y-133099853D01*
X191482973Y-133304984D01*
X191479929Y-133324202D01*
X191433037Y-133519524D01*
X191427024Y-133538031D01*
X191350151Y-133723615D01*
X191341318Y-133740950D01*
X191236364Y-133912221D01*
X191224926Y-133927964D01*
X191094468Y-134080710D01*
X191080710Y-134094468D01*
X190927964Y-134224926D01*
X190912221Y-134236364D01*
X190740950Y-134341318D01*
X190723615Y-134350151D01*
X190538031Y-134427024D01*
X190519524Y-134433037D01*
X190324202Y-134479929D01*
X190304984Y-134482973D01*
X190099854Y-134499118D01*
X190090125Y-134499500D01*
X138409875Y-134499500D01*
X138400146Y-134499118D01*
X138195015Y-134482973D01*
X138175797Y-134479929D01*
X137980475Y-134433037D01*
X137961972Y-134427025D01*
X137860552Y-134385015D01*
X137776384Y-134350151D01*
X137759049Y-134341318D01*
X137587778Y-134236364D01*
X137572035Y-134224926D01*
X137419289Y-134094468D01*
X137405531Y-134080710D01*
X137275073Y-133927964D01*
X137263639Y-133912226D01*
X137158680Y-133740949D01*
X137149848Y-133723615D01*
X137072971Y-133538019D01*
X137066964Y-133519531D01*
X137020069Y-133324197D01*
X137017026Y-133304984D01*
X137000882Y-133099853D01*
X137000500Y-133090124D01*
X137000500Y-128310948D01*
X137001712Y-128306818D01*
X137000780Y-128302615D01*
X137011472Y-128273578D01*
X137020185Y-128243909D01*
X137023436Y-128241091D01*
X137024925Y-128237050D01*
X137049619Y-128218403D01*
X137072989Y-128198154D01*
X137077248Y-128197541D01*
X137080685Y-128194947D01*
X137111534Y-128192611D01*
X137142147Y-128188210D01*
X137146062Y-128189997D01*
X137150355Y-128189673D01*
X137177565Y-128204385D01*
X137205703Y-128217235D01*
X137209103Y-128221436D01*
X137211817Y-128222904D01*
X137219234Y-128233955D01*
X137233085Y-128251070D01*
X137239169Y-128262104D01*
X137240424Y-128266786D01*
X137269361Y-128316905D01*
X137269962Y-128317947D01*
X137269983Y-128317984D01*
X137319480Y-128403715D01*
X137319482Y-128403718D01*
X137438350Y-128522586D01*
X137438356Y-128522591D01*
X137811241Y-128895476D01*
X137844726Y-128956799D01*
X137841492Y-129021473D01*
X137827753Y-129063757D01*
X137794500Y-129273713D01*
X137794500Y-129486286D01*
X137827735Y-129696127D01*
X137827754Y-129696243D01*
X137878822Y-129853414D01*
X137893444Y-129898414D01*
X137989951Y-130087820D01*
X138114890Y-130259786D01*
X138265213Y-130410109D01*
X138437179Y-130535048D01*
X138437181Y-130535049D01*
X138437184Y-130535051D01*
X138626588Y-130631557D01*
X138828757Y-130697246D01*
X139038713Y-130730500D01*
X139038714Y-130730500D01*
X139251286Y-130730500D01*
X139251287Y-130730500D01*
X139461243Y-130697246D01*
X139663412Y-130631557D01*
X139852816Y-130535051D01*
X139914758Y-130490048D01*
X140024786Y-130410109D01*
X140024788Y-130410106D01*
X140024792Y-130410104D01*
X140175104Y-130259792D01*
X140175106Y-130259788D01*
X140175109Y-130259786D01*
X140300048Y-130087820D01*
X140300047Y-130087820D01*
X140300051Y-130087816D01*
X140304514Y-130079054D01*
X140352488Y-130028259D01*
X140420308Y-130011463D01*
X140486444Y-130033999D01*
X140525486Y-130079056D01*
X140529951Y-130087820D01*
X140654890Y-130259786D01*
X140805213Y-130410109D01*
X140977179Y-130535048D01*
X140977181Y-130535049D01*
X140977184Y-130535051D01*
X141166588Y-130631557D01*
X141368757Y-130697246D01*
X141578713Y-130730500D01*
X141578714Y-130730500D01*
X141791286Y-130730500D01*
X141791287Y-130730500D01*
X142001243Y-130697246D01*
X142203412Y-130631557D01*
X142392816Y-130535051D01*
X142454758Y-130490048D01*
X142564786Y-130410109D01*
X142564788Y-130410106D01*
X142564792Y-130410104D01*
X142715104Y-130259792D01*
X142715106Y-130259788D01*
X142715109Y-130259786D01*
X142840048Y-130087820D01*
X142840047Y-130087820D01*
X142840051Y-130087816D01*
X142844514Y-130079054D01*
X142892488Y-130028259D01*
X142960308Y-130011463D01*
X143026444Y-130033999D01*
X143065486Y-130079056D01*
X143069951Y-130087820D01*
X143194890Y-130259786D01*
X143345213Y-130410109D01*
X143517179Y-130535048D01*
X143517181Y-130535049D01*
X143517184Y-130535051D01*
X143706588Y-130631557D01*
X143908757Y-130697246D01*
X144118713Y-130730500D01*
X144118714Y-130730500D01*
X144331286Y-130730500D01*
X144331287Y-130730500D01*
X144541243Y-130697246D01*
X144743412Y-130631557D01*
X144932816Y-130535051D01*
X144994758Y-130490048D01*
X145104786Y-130410109D01*
X145104788Y-130410106D01*
X145104792Y-130410104D01*
X145255104Y-130259792D01*
X145255106Y-130259788D01*
X145255109Y-130259786D01*
X145380048Y-130087820D01*
X145380047Y-130087820D01*
X145380051Y-130087816D01*
X145384514Y-130079054D01*
X145432488Y-130028259D01*
X145500308Y-130011463D01*
X145566444Y-130033999D01*
X145605486Y-130079056D01*
X145609951Y-130087820D01*
X145734890Y-130259786D01*
X145885213Y-130410109D01*
X146057179Y-130535048D01*
X146057181Y-130535049D01*
X146057184Y-130535051D01*
X146246588Y-130631557D01*
X146448757Y-130697246D01*
X146658713Y-130730500D01*
X146658714Y-130730500D01*
X146871286Y-130730500D01*
X146871287Y-130730500D01*
X147081243Y-130697246D01*
X147283412Y-130631557D01*
X147472816Y-130535051D01*
X147534758Y-130490048D01*
X147644786Y-130410109D01*
X147644788Y-130410106D01*
X147644792Y-130410104D01*
X147795104Y-130259792D01*
X147795106Y-130259788D01*
X147795109Y-130259786D01*
X147920048Y-130087820D01*
X147920047Y-130087820D01*
X147920051Y-130087816D01*
X148016557Y-129898412D01*
X148082246Y-129696243D01*
X148115500Y-129486287D01*
X148115500Y-129273713D01*
X148082246Y-129063757D01*
X148016557Y-128861588D01*
X147920051Y-128672184D01*
X147920049Y-128672181D01*
X147920048Y-128672179D01*
X147795109Y-128500213D01*
X147681569Y-128386673D01*
X147648084Y-128325350D01*
X147653068Y-128255658D01*
X147694940Y-128199725D01*
X147725915Y-128182810D01*
X147857331Y-128133796D01*
X147972546Y-128047546D01*
X148058796Y-127932331D01*
X148109091Y-127797483D01*
X148115500Y-127737873D01*
X148115499Y-125942128D01*
X148109091Y-125882517D01*
X148107810Y-125879083D01*
X148058797Y-125747671D01*
X148058793Y-125747664D01*
X147972547Y-125632455D01*
X147972544Y-125632452D01*
X147857335Y-125546206D01*
X147857328Y-125546202D01*
X147722482Y-125495908D01*
X147722483Y-125495908D01*
X147662883Y-125489501D01*
X147662881Y-125489500D01*
X147662873Y-125489500D01*
X147662864Y-125489500D01*
X145867129Y-125489500D01*
X145867123Y-125489501D01*
X145807516Y-125495908D01*
X145672671Y-125546202D01*
X145672664Y-125546206D01*
X145557455Y-125632452D01*
X145557452Y-125632455D01*
X145471206Y-125747664D01*
X145471203Y-125747669D01*
X145422189Y-125879083D01*
X145380317Y-125935016D01*
X145314853Y-125959433D01*
X145246580Y-125944581D01*
X145218326Y-125923430D01*
X145104786Y-125809890D01*
X144932820Y-125684951D01*
X144743414Y-125588444D01*
X144743413Y-125588443D01*
X144743412Y-125588443D01*
X144541243Y-125522754D01*
X144541241Y-125522753D01*
X144541240Y-125522753D01*
X144379957Y-125497208D01*
X144331287Y-125489500D01*
X144118713Y-125489500D01*
X144070042Y-125497208D01*
X143908760Y-125522753D01*
X143706585Y-125588444D01*
X143517179Y-125684951D01*
X143345213Y-125809890D01*
X143194890Y-125960213D01*
X143069949Y-126132182D01*
X143065484Y-126140946D01*
X143017509Y-126191742D01*
X142949688Y-126208536D01*
X142883553Y-126185998D01*
X142844516Y-126140946D01*
X142840050Y-126132182D01*
X142715109Y-125960213D01*
X142564786Y-125809890D01*
X142392815Y-125684948D01*
X142392814Y-125684947D01*
X142353205Y-125664765D01*
X142302409Y-125616791D01*
X142285500Y-125554281D01*
X142285500Y-119215096D01*
X142305185Y-119148057D01*
X142321814Y-119127420D01*
X147115478Y-114333755D01*
X147176799Y-114300272D01*
X147241473Y-114303506D01*
X147283757Y-114317246D01*
X147493713Y-114350500D01*
X147493714Y-114350500D01*
X147706286Y-114350500D01*
X147706287Y-114350500D01*
X147916243Y-114317246D01*
X148118412Y-114251557D01*
X148307816Y-114155051D01*
X148394138Y-114092335D01*
X148479786Y-114030109D01*
X148479788Y-114030106D01*
X148479792Y-114030104D01*
X148630104Y-113879792D01*
X148630106Y-113879788D01*
X148630109Y-113879786D01*
X148755048Y-113707820D01*
X148755047Y-113707820D01*
X148755051Y-113707816D01*
X148759514Y-113699054D01*
X148807488Y-113648259D01*
X148875308Y-113631463D01*
X148941444Y-113653999D01*
X148980486Y-113699056D01*
X148984951Y-113707820D01*
X149109890Y-113879786D01*
X149260213Y-114030109D01*
X149432184Y-114155051D01*
X149432184Y-114155052D01*
X149471793Y-114175233D01*
X149522590Y-114223206D01*
X149539500Y-114285718D01*
X149539500Y-126783330D01*
X149539499Y-126783348D01*
X149539499Y-126949054D01*
X149539498Y-126949054D01*
X149549932Y-126987993D01*
X149580423Y-127101785D01*
X149583576Y-127107246D01*
X149585886Y-127111247D01*
X149659477Y-127238712D01*
X149659481Y-127238717D01*
X149778349Y-127357585D01*
X149778355Y-127357590D01*
X151316241Y-128895476D01*
X151349726Y-128956799D01*
X151346492Y-129021473D01*
X151332753Y-129063757D01*
X151299500Y-129273713D01*
X151299500Y-129486286D01*
X151332735Y-129696127D01*
X151332754Y-129696243D01*
X151383822Y-129853414D01*
X151398444Y-129898414D01*
X151494951Y-130087820D01*
X151619890Y-130259786D01*
X151770213Y-130410109D01*
X151942179Y-130535048D01*
X151942181Y-130535049D01*
X151942184Y-130535051D01*
X152131588Y-130631557D01*
X152333757Y-130697246D01*
X152543713Y-130730500D01*
X152543714Y-130730500D01*
X152756286Y-130730500D01*
X152756287Y-130730500D01*
X152966243Y-130697246D01*
X153168412Y-130631557D01*
X153357816Y-130535051D01*
X153419758Y-130490048D01*
X153529786Y-130410109D01*
X153529788Y-130410106D01*
X153529792Y-130410104D01*
X153680104Y-130259792D01*
X153680106Y-130259788D01*
X153680109Y-130259786D01*
X153805048Y-130087820D01*
X153805047Y-130087820D01*
X153805051Y-130087816D01*
X153809514Y-130079054D01*
X153857488Y-130028259D01*
X153925308Y-130011463D01*
X153991444Y-130033999D01*
X154030486Y-130079056D01*
X154034951Y-130087820D01*
X154159890Y-130259786D01*
X154310213Y-130410109D01*
X154482179Y-130535048D01*
X154482181Y-130535049D01*
X154482184Y-130535051D01*
X154671588Y-130631557D01*
X154873757Y-130697246D01*
X155083713Y-130730500D01*
X155083714Y-130730500D01*
X155296286Y-130730500D01*
X155296287Y-130730500D01*
X155506243Y-130697246D01*
X155708412Y-130631557D01*
X155897816Y-130535051D01*
X155959758Y-130490048D01*
X156069786Y-130410109D01*
X156069788Y-130410106D01*
X156069792Y-130410104D01*
X156220104Y-130259792D01*
X156220106Y-130259788D01*
X156220109Y-130259786D01*
X156345048Y-130087820D01*
X156345047Y-130087820D01*
X156345051Y-130087816D01*
X156441557Y-129898412D01*
X156507246Y-129696243D01*
X156540500Y-129486287D01*
X156540500Y-129273713D01*
X156507246Y-129063757D01*
X156493506Y-129021473D01*
X156491512Y-128951635D01*
X156523755Y-128895478D01*
X158868713Y-126550521D01*
X158868716Y-126550520D01*
X158980520Y-126438716D01*
X159030639Y-126351904D01*
X159059577Y-126301785D01*
X159100501Y-126149057D01*
X159100501Y-125990943D01*
X159100501Y-125983348D01*
X159100500Y-125983330D01*
X159100500Y-115100096D01*
X159120185Y-115033057D01*
X159136815Y-115012419D01*
X159815478Y-114333755D01*
X159876799Y-114300272D01*
X159941473Y-114303506D01*
X159983757Y-114317246D01*
X160193713Y-114350500D01*
X160193714Y-114350500D01*
X160406286Y-114350500D01*
X160406287Y-114350500D01*
X160616243Y-114317246D01*
X160818412Y-114251557D01*
X161007816Y-114155051D01*
X161094138Y-114092335D01*
X161179786Y-114030109D01*
X161179788Y-114030106D01*
X161179792Y-114030104D01*
X161330104Y-113879792D01*
X161330106Y-113879788D01*
X161330109Y-113879786D01*
X161455048Y-113707820D01*
X161455047Y-113707820D01*
X161455051Y-113707816D01*
X161459514Y-113699054D01*
X161507488Y-113648259D01*
X161575308Y-113631463D01*
X161641444Y-113653999D01*
X161680486Y-113699056D01*
X161684951Y-113707820D01*
X161809890Y-113879786D01*
X161960213Y-114030109D01*
X162132179Y-114155048D01*
X162132181Y-114155049D01*
X162132184Y-114155051D01*
X162321588Y-114251557D01*
X162523757Y-114317246D01*
X162733713Y-114350500D01*
X162733714Y-114350500D01*
X162946286Y-114350500D01*
X162946287Y-114350500D01*
X163156243Y-114317246D01*
X163358412Y-114251557D01*
X163547816Y-114155051D01*
X163634138Y-114092335D01*
X163719786Y-114030109D01*
X163719788Y-114030106D01*
X163719792Y-114030104D01*
X163870104Y-113879792D01*
X163870106Y-113879788D01*
X163870109Y-113879786D01*
X163995048Y-113707820D01*
X163995047Y-113707820D01*
X163995051Y-113707816D01*
X163999514Y-113699054D01*
X164047488Y-113648259D01*
X164115308Y-113631463D01*
X164181444Y-113653999D01*
X164220486Y-113699056D01*
X164224951Y-113707820D01*
X164349890Y-113879786D01*
X164500213Y-114030109D01*
X164672184Y-114155051D01*
X164672184Y-114155052D01*
X164711793Y-114175233D01*
X164762590Y-114223206D01*
X164779500Y-114285718D01*
X164779500Y-125180939D01*
X164779499Y-125180943D01*
X164779499Y-125339057D01*
X164790461Y-125379968D01*
X164791142Y-125392998D01*
X164785955Y-125414811D01*
X164785422Y-125437224D01*
X164778031Y-125448143D01*
X164774981Y-125460973D01*
X164758825Y-125476519D01*
X164746259Y-125495086D01*
X164734137Y-125500276D01*
X164724636Y-125509420D01*
X164702639Y-125513764D01*
X164682030Y-125522589D01*
X164667033Y-125520795D01*
X164656090Y-125522957D01*
X164643494Y-125517981D01*
X164623978Y-125515648D01*
X164572379Y-125496403D01*
X164572372Y-125496401D01*
X164512844Y-125490000D01*
X163865000Y-125490000D01*
X163865000Y-126406988D01*
X163807993Y-126374075D01*
X163680826Y-126340000D01*
X163549174Y-126340000D01*
X163422007Y-126374075D01*
X163365000Y-126406988D01*
X163365000Y-125490000D01*
X162717155Y-125490000D01*
X162657627Y-125496401D01*
X162657620Y-125496403D01*
X162522913Y-125546645D01*
X162522906Y-125546649D01*
X162407812Y-125632809D01*
X162407809Y-125632812D01*
X162321649Y-125747906D01*
X162321645Y-125747913D01*
X162271403Y-125882619D01*
X162271401Y-125882626D01*
X162262497Y-125965444D01*
X162259434Y-125965114D01*
X162260336Y-125982094D01*
X162227356Y-126041195D01*
X161557962Y-126710590D01*
X161540925Y-126647007D01*
X161475099Y-126532993D01*
X161382007Y-126439901D01*
X161267993Y-126374075D01*
X161204409Y-126357037D01*
X161836716Y-125724728D01*
X161782550Y-125685375D01*
X161593217Y-125588904D01*
X161391129Y-125523242D01*
X161181246Y-125490000D01*
X160968754Y-125490000D01*
X160758872Y-125523242D01*
X160758869Y-125523242D01*
X160556782Y-125588904D01*
X160367439Y-125685380D01*
X160313282Y-125724727D01*
X160313282Y-125724728D01*
X160945591Y-126357037D01*
X160882007Y-126374075D01*
X160767993Y-126439901D01*
X160674901Y-126532993D01*
X160609075Y-126647007D01*
X160592037Y-126710591D01*
X159959728Y-126078282D01*
X159959727Y-126078282D01*
X159920380Y-126132439D01*
X159823904Y-126321782D01*
X159758242Y-126523869D01*
X159758242Y-126523872D01*
X159725000Y-126733753D01*
X159725000Y-126946246D01*
X159758242Y-127156127D01*
X159758242Y-127156130D01*
X159823904Y-127358217D01*
X159920375Y-127547550D01*
X159959728Y-127601716D01*
X160592037Y-126969408D01*
X160609075Y-127032993D01*
X160674901Y-127147007D01*
X160767993Y-127240099D01*
X160882007Y-127305925D01*
X160945591Y-127322962D01*
X160344971Y-127923581D01*
X160423711Y-128040895D01*
X160424920Y-128044729D01*
X160427844Y-128047491D01*
X160435343Y-128077778D01*
X160444727Y-128107529D01*
X160443671Y-128111408D01*
X160444638Y-128115312D01*
X160434573Y-128144844D01*
X160426383Y-128174947D01*
X160423397Y-128177640D01*
X160422100Y-128181447D01*
X160377051Y-128220483D01*
X160367440Y-128225380D01*
X160313282Y-128264727D01*
X160313282Y-128264728D01*
X160945591Y-128897037D01*
X160882007Y-128914075D01*
X160767993Y-128979901D01*
X160674901Y-129072993D01*
X160609075Y-129187007D01*
X160592037Y-129250591D01*
X159959728Y-128618282D01*
X159959727Y-128618282D01*
X159920380Y-128672439D01*
X159823904Y-128861782D01*
X159758242Y-129063869D01*
X159758242Y-129063872D01*
X159725000Y-129273753D01*
X159725000Y-129486246D01*
X159758242Y-129696127D01*
X159758242Y-129696130D01*
X159823904Y-129898217D01*
X159920375Y-130087550D01*
X159959728Y-130141716D01*
X160592037Y-129509408D01*
X160609075Y-129572993D01*
X160674901Y-129687007D01*
X160767993Y-129780099D01*
X160882007Y-129845925D01*
X160945590Y-129862962D01*
X160313282Y-130495269D01*
X160313282Y-130495270D01*
X160367449Y-130534624D01*
X160556782Y-130631095D01*
X160758870Y-130696757D01*
X160968754Y-130730000D01*
X161181246Y-130730000D01*
X161391127Y-130696757D01*
X161391130Y-130696757D01*
X161593217Y-130631095D01*
X161782554Y-130534622D01*
X161836716Y-130495270D01*
X161836717Y-130495270D01*
X161204408Y-129862962D01*
X161267993Y-129845925D01*
X161382007Y-129780099D01*
X161475099Y-129687007D01*
X161540925Y-129572993D01*
X161557962Y-129509409D01*
X162190270Y-130141717D01*
X162190270Y-130141716D01*
X162229622Y-130087554D01*
X162234514Y-130077954D01*
X162282488Y-130027157D01*
X162350308Y-130010361D01*
X162416444Y-130032897D01*
X162455486Y-130077954D01*
X162460375Y-130087550D01*
X162499728Y-130141716D01*
X163132037Y-129509408D01*
X163149075Y-129572993D01*
X163214901Y-129687007D01*
X163307993Y-129780099D01*
X163422007Y-129845925D01*
X163485590Y-129862962D01*
X162853282Y-130495269D01*
X162853282Y-130495270D01*
X162907449Y-130534624D01*
X163096782Y-130631095D01*
X163298870Y-130696757D01*
X163508754Y-130730000D01*
X163721246Y-130730000D01*
X163931127Y-130696757D01*
X163931130Y-130696757D01*
X164133217Y-130631095D01*
X164322554Y-130534622D01*
X164376716Y-130495270D01*
X164376717Y-130495270D01*
X163744408Y-129862962D01*
X163807993Y-129845925D01*
X163922007Y-129780099D01*
X164015099Y-129687007D01*
X164080925Y-129572993D01*
X164097962Y-129509408D01*
X164730270Y-130141717D01*
X164730270Y-130141716D01*
X164769622Y-130087554D01*
X164866095Y-129898217D01*
X164931757Y-129696130D01*
X164931757Y-129696127D01*
X164965000Y-129486246D01*
X164965000Y-129273753D01*
X164931757Y-129063872D01*
X164931757Y-129063869D01*
X164866095Y-128861782D01*
X164769624Y-128672449D01*
X164730270Y-128618282D01*
X164730269Y-128618282D01*
X164097962Y-129250590D01*
X164080925Y-129187007D01*
X164015099Y-129072993D01*
X163922007Y-128979901D01*
X163807993Y-128914075D01*
X163744409Y-128897037D01*
X164413802Y-128227642D01*
X164475125Y-128194157D01*
X164489833Y-128195078D01*
X164489556Y-128192501D01*
X164572375Y-128183598D01*
X164707086Y-128133354D01*
X164707093Y-128133350D01*
X164822187Y-128047190D01*
X164822190Y-128047187D01*
X164908350Y-127932093D01*
X164908354Y-127932086D01*
X164958596Y-127797379D01*
X164958598Y-127797372D01*
X164964999Y-127737844D01*
X164965000Y-127737827D01*
X164965000Y-127090000D01*
X164048012Y-127090000D01*
X164080925Y-127032993D01*
X164115000Y-126905826D01*
X164115000Y-126774174D01*
X164080925Y-126647007D01*
X164048012Y-126590000D01*
X164965000Y-126590000D01*
X164965000Y-125993597D01*
X164984685Y-125926558D01*
X165037489Y-125880803D01*
X165106647Y-125870859D01*
X165170203Y-125899884D01*
X165176681Y-125905916D01*
X168166241Y-128895476D01*
X168199726Y-128956799D01*
X168196492Y-129021473D01*
X168182753Y-129063757D01*
X168149500Y-129273713D01*
X168149500Y-129486286D01*
X168182735Y-129696127D01*
X168182754Y-129696243D01*
X168233822Y-129853414D01*
X168248444Y-129898414D01*
X168344951Y-130087820D01*
X168469890Y-130259786D01*
X168620213Y-130410109D01*
X168792179Y-130535048D01*
X168792181Y-130535049D01*
X168792184Y-130535051D01*
X168981588Y-130631557D01*
X169183757Y-130697246D01*
X169393713Y-130730500D01*
X169393714Y-130730500D01*
X169606286Y-130730500D01*
X169606287Y-130730500D01*
X169816243Y-130697246D01*
X170018412Y-130631557D01*
X170207816Y-130535051D01*
X170269758Y-130490048D01*
X170379786Y-130410109D01*
X170379788Y-130410106D01*
X170379792Y-130410104D01*
X170530104Y-130259792D01*
X170530106Y-130259788D01*
X170530109Y-130259786D01*
X170655048Y-130087820D01*
X170655047Y-130087820D01*
X170655051Y-130087816D01*
X170659514Y-130079054D01*
X170707488Y-130028259D01*
X170775308Y-130011463D01*
X170841444Y-130033999D01*
X170880486Y-130079056D01*
X170884951Y-130087820D01*
X171009890Y-130259786D01*
X171160213Y-130410109D01*
X171332179Y-130535048D01*
X171332181Y-130535049D01*
X171332184Y-130535051D01*
X171521588Y-130631557D01*
X171723757Y-130697246D01*
X171933713Y-130730500D01*
X171933714Y-130730500D01*
X172146286Y-130730500D01*
X172146287Y-130730500D01*
X172356243Y-130697246D01*
X172558412Y-130631557D01*
X172747816Y-130535051D01*
X172809758Y-130490048D01*
X172919786Y-130410109D01*
X172919788Y-130410106D01*
X172919792Y-130410104D01*
X173070104Y-130259792D01*
X173070106Y-130259788D01*
X173070109Y-130259786D01*
X173195048Y-130087820D01*
X173195047Y-130087820D01*
X173195051Y-130087816D01*
X173291557Y-129898412D01*
X173357246Y-129696243D01*
X173390500Y-129486287D01*
X173390500Y-129273713D01*
X173357246Y-129063757D01*
X173343506Y-129021473D01*
X173341512Y-128951635D01*
X173373755Y-128895478D01*
X174330520Y-127938716D01*
X174409577Y-127801784D01*
X174450501Y-127649057D01*
X174450501Y-127490942D01*
X174450501Y-127483347D01*
X174450500Y-127483329D01*
X174450500Y-114119758D01*
X174470185Y-114052719D01*
X174522989Y-114006964D01*
X174592147Y-113997020D01*
X174655703Y-114026045D01*
X174658445Y-114028598D01*
X174660213Y-114030109D01*
X174832179Y-114155048D01*
X174832181Y-114155049D01*
X174832184Y-114155051D01*
X175021588Y-114251557D01*
X175223757Y-114317246D01*
X175433713Y-114350500D01*
X175433714Y-114350500D01*
X175646286Y-114350500D01*
X175646287Y-114350500D01*
X175856243Y-114317246D01*
X176058412Y-114251557D01*
X176247816Y-114155051D01*
X176334138Y-114092335D01*
X176419786Y-114030109D01*
X176419788Y-114030106D01*
X176419792Y-114030104D01*
X176570104Y-113879792D01*
X176570106Y-113879788D01*
X176570109Y-113879786D01*
X176695048Y-113707820D01*
X176695047Y-113707820D01*
X176695051Y-113707816D01*
X176699514Y-113699054D01*
X176747488Y-113648259D01*
X176815308Y-113631463D01*
X176881444Y-113653999D01*
X176920486Y-113699056D01*
X176924951Y-113707820D01*
X177049890Y-113879786D01*
X177200213Y-114030109D01*
X177372179Y-114155048D01*
X177372181Y-114155049D01*
X177372184Y-114155051D01*
X177561588Y-114251557D01*
X177763757Y-114317246D01*
X177973713Y-114350500D01*
X177973714Y-114350500D01*
X178186286Y-114350500D01*
X178186287Y-114350500D01*
X178396243Y-114317246D01*
X178598412Y-114251557D01*
X178787816Y-114155051D01*
X178874138Y-114092335D01*
X178959786Y-114030109D01*
X178959788Y-114030106D01*
X178959792Y-114030104D01*
X179110104Y-113879792D01*
X179110106Y-113879788D01*
X179110109Y-113879786D01*
X179235048Y-113707820D01*
X179235047Y-113707820D01*
X179235051Y-113707816D01*
X179239514Y-113699054D01*
X179287488Y-113648259D01*
X179355308Y-113631463D01*
X179421444Y-113653999D01*
X179460486Y-113699056D01*
X179464951Y-113707820D01*
X179589890Y-113879786D01*
X179740213Y-114030109D01*
X179912179Y-114155048D01*
X179912181Y-114155049D01*
X179912184Y-114155051D01*
X180101588Y-114251557D01*
X180303757Y-114317246D01*
X180513713Y-114350500D01*
X180513714Y-114350500D01*
X180726286Y-114350500D01*
X180726287Y-114350500D01*
X180936243Y-114317246D01*
X181138412Y-114251557D01*
X181229204Y-114205295D01*
X181297874Y-114192399D01*
X181362614Y-114218675D01*
X181402872Y-114275781D01*
X181409500Y-114315780D01*
X181409500Y-124908330D01*
X181409499Y-124908348D01*
X181409499Y-125074054D01*
X181409498Y-125074054D01*
X181435233Y-125170097D01*
X181450423Y-125226785D01*
X181479360Y-125276904D01*
X181529480Y-125363716D01*
X181532439Y-125366675D01*
X181538562Y-125377032D01*
X181545384Y-125403938D01*
X181555390Y-125429823D01*
X181553850Y-125437328D01*
X181555734Y-125444758D01*
X181546927Y-125471078D01*
X181541350Y-125498267D01*
X181535995Y-125503750D01*
X181533564Y-125511017D01*
X181511925Y-125528397D01*
X181492534Y-125548255D01*
X181485066Y-125549972D01*
X181479091Y-125554772D01*
X181451487Y-125557695D01*
X181424442Y-125563916D01*
X181415905Y-125561464D01*
X181409610Y-125562131D01*
X181398116Y-125556354D01*
X181372390Y-125548966D01*
X181367332Y-125546204D01*
X181232482Y-125495908D01*
X181232483Y-125495908D01*
X181172883Y-125489501D01*
X181172881Y-125489500D01*
X181172873Y-125489500D01*
X181172864Y-125489500D01*
X179377129Y-125489500D01*
X179377123Y-125489501D01*
X179317516Y-125495908D01*
X179182671Y-125546202D01*
X179182664Y-125546206D01*
X179067455Y-125632452D01*
X179067452Y-125632455D01*
X178981206Y-125747664D01*
X178981203Y-125747669D01*
X178932189Y-125879083D01*
X178890317Y-125935016D01*
X178824853Y-125959433D01*
X178756580Y-125944581D01*
X178728326Y-125923430D01*
X178614786Y-125809890D01*
X178442820Y-125684951D01*
X178253414Y-125588444D01*
X178253413Y-125588443D01*
X178253412Y-125588443D01*
X178051243Y-125522754D01*
X178051241Y-125522753D01*
X178051240Y-125522753D01*
X177889957Y-125497208D01*
X177841287Y-125489500D01*
X177628713Y-125489500D01*
X177580042Y-125497208D01*
X177418760Y-125522753D01*
X177216585Y-125588444D01*
X177027179Y-125684951D01*
X176855213Y-125809890D01*
X176704890Y-125960213D01*
X176579951Y-126132179D01*
X176483444Y-126321585D01*
X176417753Y-126523760D01*
X176384500Y-126733713D01*
X176384500Y-126946286D01*
X176417735Y-127156127D01*
X176417754Y-127156243D01*
X176483174Y-127357585D01*
X176483444Y-127358414D01*
X176579951Y-127547820D01*
X176704890Y-127719786D01*
X176855213Y-127870109D01*
X177027182Y-127995050D01*
X177035946Y-127999516D01*
X177086742Y-128047491D01*
X177103536Y-128115312D01*
X177080998Y-128181447D01*
X177035946Y-128220484D01*
X177027182Y-128224949D01*
X176855213Y-128349890D01*
X176704890Y-128500213D01*
X176579951Y-128672179D01*
X176483444Y-128861585D01*
X176417753Y-129063760D01*
X176384500Y-129273713D01*
X176384500Y-129486286D01*
X176417735Y-129696127D01*
X176417754Y-129696243D01*
X176468822Y-129853414D01*
X176483444Y-129898414D01*
X176579951Y-130087820D01*
X176704890Y-130259786D01*
X176855213Y-130410109D01*
X177027179Y-130535048D01*
X177027181Y-130535049D01*
X177027184Y-130535051D01*
X177216588Y-130631557D01*
X177418757Y-130697246D01*
X177628713Y-130730500D01*
X177628714Y-130730500D01*
X177841286Y-130730500D01*
X177841287Y-130730500D01*
X178051243Y-130697246D01*
X178253412Y-130631557D01*
X178442816Y-130535051D01*
X178504758Y-130490048D01*
X178614786Y-130410109D01*
X178614788Y-130410106D01*
X178614792Y-130410104D01*
X178765104Y-130259792D01*
X178765106Y-130259788D01*
X178765109Y-130259786D01*
X178890048Y-130087820D01*
X178890047Y-130087820D01*
X178890051Y-130087816D01*
X178894514Y-130079054D01*
X178942488Y-130028259D01*
X179010308Y-130011463D01*
X179076444Y-130033999D01*
X179115486Y-130079056D01*
X179119951Y-130087820D01*
X179244890Y-130259786D01*
X179395213Y-130410109D01*
X179567179Y-130535048D01*
X179567181Y-130535049D01*
X179567184Y-130535051D01*
X179756588Y-130631557D01*
X179958757Y-130697246D01*
X180168713Y-130730500D01*
X180168714Y-130730500D01*
X180381286Y-130730500D01*
X180381287Y-130730500D01*
X180591243Y-130697246D01*
X180793412Y-130631557D01*
X180982816Y-130535051D01*
X181044758Y-130490048D01*
X181154786Y-130410109D01*
X181154788Y-130410106D01*
X181154792Y-130410104D01*
X181305104Y-130259792D01*
X181305106Y-130259788D01*
X181305109Y-130259786D01*
X181430048Y-130087820D01*
X181430047Y-130087820D01*
X181430051Y-130087816D01*
X181526557Y-129898412D01*
X181592246Y-129696243D01*
X181625500Y-129486287D01*
X181625500Y-129273713D01*
X181592246Y-129063757D01*
X181526557Y-128861588D01*
X181430051Y-128672184D01*
X181430049Y-128672181D01*
X181430048Y-128672179D01*
X181305109Y-128500213D01*
X181191569Y-128386673D01*
X181158084Y-128325350D01*
X181163068Y-128255658D01*
X181204940Y-128199725D01*
X181235915Y-128182810D01*
X181367331Y-128133796D01*
X181482546Y-128047546D01*
X181568796Y-127932331D01*
X181619091Y-127797483D01*
X181625500Y-127737873D01*
X181625499Y-125942128D01*
X181619091Y-125882517D01*
X181617810Y-125879083D01*
X181568797Y-125747671D01*
X181567575Y-125745433D01*
X181567032Y-125742939D01*
X181565697Y-125739359D01*
X181566211Y-125739167D01*
X181552721Y-125677161D01*
X181577135Y-125611695D01*
X181633067Y-125569822D01*
X181702759Y-125564835D01*
X181764083Y-125598318D01*
X185016241Y-128850476D01*
X185049726Y-128911799D01*
X185046492Y-128976473D01*
X185032753Y-129018757D01*
X184999500Y-129228713D01*
X184999500Y-129441287D01*
X185032754Y-129651243D01*
X185096010Y-129845925D01*
X185098444Y-129853414D01*
X185194951Y-130042820D01*
X185319890Y-130214786D01*
X185470213Y-130365109D01*
X185642179Y-130490048D01*
X185642181Y-130490049D01*
X185642184Y-130490051D01*
X185831588Y-130586557D01*
X186033757Y-130652246D01*
X186243713Y-130685500D01*
X186243714Y-130685500D01*
X186456286Y-130685500D01*
X186456287Y-130685500D01*
X186666243Y-130652246D01*
X186868412Y-130586557D01*
X187057816Y-130490051D01*
X187079789Y-130474086D01*
X187229786Y-130365109D01*
X187229788Y-130365106D01*
X187229792Y-130365104D01*
X187380104Y-130214792D01*
X187380106Y-130214788D01*
X187380109Y-130214786D01*
X187505048Y-130042820D01*
X187505047Y-130042820D01*
X187505051Y-130042816D01*
X187509514Y-130034054D01*
X187557488Y-129983259D01*
X187625308Y-129966463D01*
X187691444Y-129988999D01*
X187730486Y-130034056D01*
X187734951Y-130042820D01*
X187859890Y-130214786D01*
X188010213Y-130365109D01*
X188182179Y-130490048D01*
X188182181Y-130490049D01*
X188182184Y-130490051D01*
X188371588Y-130586557D01*
X188573757Y-130652246D01*
X188783713Y-130685500D01*
X188783714Y-130685500D01*
X188996286Y-130685500D01*
X188996287Y-130685500D01*
X189206243Y-130652246D01*
X189408412Y-130586557D01*
X189597816Y-130490051D01*
X189619789Y-130474086D01*
X189769786Y-130365109D01*
X189769788Y-130365106D01*
X189769792Y-130365104D01*
X189920104Y-130214792D01*
X189920106Y-130214788D01*
X189920109Y-130214786D01*
X190045048Y-130042820D01*
X190045047Y-130042820D01*
X190045051Y-130042816D01*
X190141557Y-129853412D01*
X190207246Y-129651243D01*
X190240500Y-129441287D01*
X190240500Y-129228713D01*
X190207246Y-129018757D01*
X190141557Y-128816588D01*
X190045051Y-128627184D01*
X190045049Y-128627181D01*
X190045048Y-128627179D01*
X189920109Y-128455213D01*
X189806181Y-128341285D01*
X189772696Y-128279962D01*
X189777680Y-128210270D01*
X189819552Y-128154337D01*
X189850529Y-128137422D01*
X189982086Y-128088354D01*
X189982093Y-128088350D01*
X190097187Y-128002190D01*
X190097190Y-128002187D01*
X190183350Y-127887093D01*
X190183354Y-127887086D01*
X190233596Y-127752379D01*
X190233598Y-127752372D01*
X190239999Y-127692844D01*
X190240000Y-127692827D01*
X190240000Y-127045000D01*
X189323012Y-127045000D01*
X189355925Y-126987993D01*
X189390000Y-126860826D01*
X189390000Y-126729174D01*
X189355925Y-126602007D01*
X189323012Y-126545000D01*
X190240000Y-126545000D01*
X190240000Y-125897172D01*
X190239999Y-125897155D01*
X190233598Y-125837627D01*
X190233596Y-125837620D01*
X190183354Y-125702913D01*
X190183350Y-125702906D01*
X190097190Y-125587812D01*
X190097187Y-125587809D01*
X189982093Y-125501649D01*
X189982086Y-125501645D01*
X189847379Y-125451403D01*
X189847372Y-125451401D01*
X189787844Y-125445000D01*
X189140000Y-125445000D01*
X189140000Y-126361988D01*
X189082993Y-126329075D01*
X188955826Y-126295000D01*
X188824174Y-126295000D01*
X188697007Y-126329075D01*
X188640000Y-126361988D01*
X188640000Y-125445000D01*
X187992155Y-125445000D01*
X187932627Y-125451401D01*
X187932620Y-125451403D01*
X187797913Y-125501645D01*
X187797906Y-125501649D01*
X187682812Y-125587809D01*
X187682809Y-125587812D01*
X187596649Y-125702906D01*
X187596646Y-125702912D01*
X187547577Y-125834471D01*
X187505705Y-125890404D01*
X187440241Y-125914821D01*
X187371968Y-125899969D01*
X187343714Y-125878818D01*
X187229786Y-125764890D01*
X187057820Y-125639951D01*
X186868414Y-125543444D01*
X186868413Y-125543443D01*
X186868412Y-125543443D01*
X186666243Y-125477754D01*
X186666241Y-125477753D01*
X186666240Y-125477753D01*
X186504957Y-125452208D01*
X186456287Y-125444500D01*
X186243713Y-125444500D01*
X186220712Y-125448143D01*
X186033757Y-125477753D01*
X185991473Y-125491492D01*
X185921632Y-125493486D01*
X185865476Y-125461241D01*
X184946819Y-124542583D01*
X184913334Y-124481260D01*
X184910500Y-124454902D01*
X184910500Y-114315780D01*
X184930185Y-114248741D01*
X184982989Y-114202986D01*
X185052147Y-114193042D01*
X185090794Y-114205295D01*
X185099500Y-114209731D01*
X185181583Y-114251555D01*
X185181585Y-114251555D01*
X185181588Y-114251557D01*
X185383757Y-114317246D01*
X185593713Y-114350500D01*
X185593714Y-114350500D01*
X185806286Y-114350500D01*
X185806287Y-114350500D01*
X186016243Y-114317246D01*
X186218412Y-114251557D01*
X186407816Y-114155051D01*
X186494138Y-114092335D01*
X186579786Y-114030109D01*
X186579788Y-114030106D01*
X186579792Y-114030104D01*
X186730104Y-113879792D01*
X186730106Y-113879788D01*
X186730109Y-113879786D01*
X186855048Y-113707820D01*
X186855047Y-113707820D01*
X186855051Y-113707816D01*
X186859514Y-113699054D01*
X186907488Y-113648259D01*
X186975308Y-113631463D01*
X187041444Y-113653999D01*
X187080486Y-113699056D01*
X187084951Y-113707820D01*
X187209890Y-113879786D01*
X187360213Y-114030109D01*
X187532179Y-114155048D01*
X187532181Y-114155049D01*
X187532184Y-114155051D01*
X187721588Y-114251557D01*
X187923757Y-114317246D01*
X188133713Y-114350500D01*
X188133714Y-114350500D01*
X188346286Y-114350500D01*
X188346287Y-114350500D01*
X188556243Y-114317246D01*
X188758412Y-114251557D01*
X188947816Y-114155051D01*
X189034138Y-114092335D01*
X189119786Y-114030109D01*
X189119788Y-114030106D01*
X189119792Y-114030104D01*
X189270104Y-113879792D01*
X189270106Y-113879788D01*
X189270109Y-113879786D01*
X189395048Y-113707820D01*
X189395047Y-113707820D01*
X189395051Y-113707816D01*
X189491557Y-113518412D01*
X189557246Y-113316243D01*
X189590500Y-113106287D01*
X189590500Y-112893713D01*
X189557246Y-112683757D01*
X189491557Y-112481588D01*
X189395051Y-112292184D01*
X189395049Y-112292181D01*
X189395048Y-112292179D01*
X189270109Y-112120213D01*
X189119786Y-111969890D01*
X188947820Y-111844951D01*
X188758414Y-111748444D01*
X188758413Y-111748443D01*
X188758412Y-111748443D01*
X188556243Y-111682754D01*
X188556241Y-111682753D01*
X188556240Y-111682753D01*
X188394957Y-111657208D01*
X188346287Y-111649500D01*
X188133713Y-111649500D01*
X188085042Y-111657208D01*
X187923760Y-111682753D01*
X187721585Y-111748444D01*
X187532179Y-111844951D01*
X187360213Y-111969890D01*
X187209890Y-112120213D01*
X187084949Y-112292182D01*
X187080484Y-112300946D01*
X187032509Y-112351742D01*
X186964688Y-112368536D01*
X186898553Y-112345998D01*
X186859516Y-112300946D01*
X186855050Y-112292182D01*
X186730109Y-112120213D01*
X186579786Y-111969890D01*
X186407820Y-111844951D01*
X186218414Y-111748444D01*
X186218413Y-111748443D01*
X186218412Y-111748443D01*
X186016243Y-111682754D01*
X186016241Y-111682753D01*
X186016240Y-111682753D01*
X185854957Y-111657208D01*
X185806287Y-111649500D01*
X185593713Y-111649500D01*
X185545042Y-111657208D01*
X185383760Y-111682753D01*
X185181585Y-111748444D01*
X185074197Y-111803161D01*
X185005527Y-111816057D01*
X184940787Y-111789780D01*
X184900530Y-111732674D01*
X184898133Y-111724789D01*
X184869577Y-111618216D01*
X184801119Y-111499642D01*
X184790524Y-111481290D01*
X184790518Y-111481282D01*
X184678717Y-111369481D01*
X184678709Y-111369475D01*
X184541790Y-111290426D01*
X184541786Y-111290424D01*
X184541784Y-111290423D01*
X184541782Y-111290422D01*
X184541779Y-111290421D01*
X184448029Y-111265300D01*
X184392443Y-111233207D01*
X183636819Y-110477583D01*
X183603334Y-110416260D01*
X183600500Y-110389902D01*
X183600500Y-106763139D01*
X183620185Y-106696100D01*
X183672989Y-106650345D01*
X183742147Y-106640401D01*
X183805703Y-106669426D01*
X183843477Y-106728204D01*
X183846973Y-106743741D01*
X183860290Y-106827826D01*
X183921117Y-107015029D01*
X183996488Y-107162952D01*
X184010476Y-107190405D01*
X184126172Y-107349646D01*
X184265354Y-107488828D01*
X184424595Y-107604524D01*
X184507455Y-107646743D01*
X184599970Y-107693882D01*
X184599972Y-107693882D01*
X184599975Y-107693884D01*
X184700317Y-107726487D01*
X184787173Y-107754709D01*
X184981578Y-107785500D01*
X184981583Y-107785500D01*
X185178422Y-107785500D01*
X185372826Y-107754709D01*
X185395428Y-107747365D01*
X185560025Y-107693884D01*
X185735405Y-107604524D01*
X185894646Y-107488828D01*
X186033828Y-107349646D01*
X186149524Y-107190405D01*
X186238884Y-107015025D01*
X186299709Y-106827826D01*
X186316031Y-106724778D01*
X186709500Y-106724778D01*
X186709500Y-106945222D01*
X186720556Y-107015025D01*
X186743985Y-107162952D01*
X186812103Y-107372603D01*
X186812104Y-107372606D01*
X186912187Y-107569025D01*
X187041752Y-107747358D01*
X187041756Y-107747363D01*
X187197636Y-107903243D01*
X187197641Y-107903247D01*
X187285729Y-107967246D01*
X187375978Y-108032815D01*
X187504375Y-108098237D01*
X187572393Y-108132895D01*
X187572396Y-108132896D01*
X187677221Y-108166955D01*
X187782049Y-108201015D01*
X187999778Y-108235500D01*
X187999779Y-108235500D01*
X188220221Y-108235500D01*
X188220222Y-108235500D01*
X188437951Y-108201015D01*
X188647606Y-108132895D01*
X188844022Y-108032815D01*
X189022365Y-107903242D01*
X189178242Y-107747365D01*
X189307815Y-107569022D01*
X189407895Y-107372606D01*
X189476015Y-107162951D01*
X189510500Y-106945222D01*
X189510500Y-106724778D01*
X189476015Y-106507049D01*
X189419710Y-106333757D01*
X189407896Y-106297396D01*
X189407895Y-106297393D01*
X189373237Y-106229375D01*
X189307815Y-106100978D01*
X189274392Y-106054975D01*
X189178247Y-105922641D01*
X189178243Y-105922636D01*
X189022363Y-105766756D01*
X189022358Y-105766752D01*
X188844025Y-105637187D01*
X188844024Y-105637186D01*
X188844022Y-105637185D01*
X188761156Y-105594962D01*
X188647606Y-105537104D01*
X188647603Y-105537103D01*
X188437952Y-105468985D01*
X188329086Y-105451742D01*
X188220222Y-105434500D01*
X187999778Y-105434500D01*
X187927201Y-105445995D01*
X187782047Y-105468985D01*
X187572396Y-105537103D01*
X187572393Y-105537104D01*
X187375974Y-105637187D01*
X187197641Y-105766752D01*
X187197636Y-105766756D01*
X187041756Y-105922636D01*
X187041752Y-105922641D01*
X186912187Y-106100974D01*
X186812104Y-106297393D01*
X186812103Y-106297396D01*
X186743985Y-106507047D01*
X186743985Y-106507049D01*
X186709500Y-106724778D01*
X186316031Y-106724778D01*
X186319875Y-106700508D01*
X186319875Y-106700507D01*
X186330500Y-106633423D01*
X186330500Y-106436577D01*
X186299709Y-106242173D01*
X186238882Y-106054970D01*
X186149523Y-105879594D01*
X186033828Y-105720354D01*
X185894646Y-105581172D01*
X185735405Y-105465476D01*
X185674611Y-105434500D01*
X185560029Y-105376117D01*
X185372826Y-105315290D01*
X185178422Y-105284500D01*
X185178417Y-105284500D01*
X184981583Y-105284500D01*
X184981578Y-105284500D01*
X184787173Y-105315290D01*
X184599970Y-105376117D01*
X184424594Y-105465476D01*
X184384029Y-105494949D01*
X184265354Y-105581172D01*
X184265352Y-105581174D01*
X184265351Y-105581174D01*
X184126174Y-105720351D01*
X184126174Y-105720352D01*
X184126172Y-105720354D01*
X184089951Y-105770208D01*
X184010476Y-105879594D01*
X183921117Y-106054970D01*
X183860290Y-106242173D01*
X183846973Y-106326258D01*
X183817044Y-106389393D01*
X183757732Y-106426324D01*
X183687869Y-106425326D01*
X183629637Y-106386716D01*
X183601523Y-106322752D01*
X183600500Y-106306860D01*
X183600500Y-101913139D01*
X183620185Y-101846100D01*
X183672989Y-101800345D01*
X183742147Y-101790401D01*
X183805703Y-101819426D01*
X183843477Y-101878204D01*
X183846973Y-101893741D01*
X183860290Y-101977826D01*
X183921117Y-102165029D01*
X183988545Y-102297363D01*
X184010476Y-102340405D01*
X184126172Y-102499646D01*
X184265354Y-102638828D01*
X184424595Y-102754524D01*
X184485389Y-102785500D01*
X184599970Y-102843882D01*
X184599972Y-102843882D01*
X184599975Y-102843884D01*
X184700317Y-102876487D01*
X184787173Y-102904709D01*
X184981578Y-102935500D01*
X184981583Y-102935500D01*
X185178422Y-102935500D01*
X185372826Y-102904709D01*
X185378664Y-102902812D01*
X185560025Y-102843884D01*
X185735405Y-102754524D01*
X185894646Y-102638828D01*
X186033828Y-102499646D01*
X186149524Y-102340405D01*
X186238884Y-102165025D01*
X186299709Y-101977826D01*
X186308455Y-101922606D01*
X186330500Y-101783422D01*
X186330500Y-101586577D01*
X186299709Y-101392173D01*
X186272432Y-101308225D01*
X186261564Y-101274778D01*
X186709500Y-101274778D01*
X186709500Y-101495221D01*
X186743985Y-101712952D01*
X186812103Y-101922603D01*
X186812104Y-101922606D01*
X186840241Y-101977826D01*
X186896589Y-102088414D01*
X186912187Y-102119025D01*
X187041752Y-102297358D01*
X187041756Y-102297363D01*
X187197636Y-102453243D01*
X187197641Y-102453247D01*
X187349686Y-102563713D01*
X187375978Y-102582815D01*
X187485903Y-102638825D01*
X187572393Y-102682895D01*
X187572396Y-102682896D01*
X187677221Y-102716955D01*
X187782049Y-102751015D01*
X187999778Y-102785500D01*
X187999779Y-102785500D01*
X188220221Y-102785500D01*
X188220222Y-102785500D01*
X188437951Y-102751015D01*
X188647606Y-102682895D01*
X188844022Y-102582815D01*
X189022365Y-102453242D01*
X189178242Y-102297365D01*
X189307815Y-102119022D01*
X189407895Y-101922606D01*
X189476015Y-101712951D01*
X189510500Y-101495222D01*
X189510500Y-101274778D01*
X189476015Y-101057049D01*
X189415355Y-100870354D01*
X189407896Y-100847396D01*
X189407895Y-100847393D01*
X189348676Y-100731172D01*
X189307815Y-100650978D01*
X189282021Y-100615476D01*
X189178247Y-100472641D01*
X189178243Y-100472636D01*
X189022363Y-100316756D01*
X189022358Y-100316752D01*
X188844025Y-100187187D01*
X188844024Y-100187186D01*
X188844022Y-100187185D01*
X188781096Y-100155122D01*
X188647606Y-100087104D01*
X188647603Y-100087103D01*
X188437952Y-100018985D01*
X188249006Y-99989059D01*
X188220222Y-99984500D01*
X187999778Y-99984500D01*
X187971076Y-99989046D01*
X187782047Y-100018985D01*
X187572396Y-100087103D01*
X187572393Y-100087104D01*
X187375974Y-100187187D01*
X187197641Y-100316752D01*
X187197636Y-100316756D01*
X187041756Y-100472636D01*
X187041752Y-100472641D01*
X186912187Y-100650974D01*
X186812104Y-100847393D01*
X186812103Y-100847396D01*
X186743985Y-101057047D01*
X186709500Y-101274778D01*
X186261564Y-101274778D01*
X186238884Y-101204975D01*
X186238882Y-101204972D01*
X186238882Y-101204970D01*
X186160728Y-101051585D01*
X186149524Y-101029595D01*
X186033828Y-100870354D01*
X185894646Y-100731172D01*
X185735405Y-100615476D01*
X185690147Y-100592416D01*
X185560029Y-100526117D01*
X185372826Y-100465290D01*
X185178422Y-100434500D01*
X185178417Y-100434500D01*
X184981583Y-100434500D01*
X184981578Y-100434500D01*
X184787173Y-100465290D01*
X184599970Y-100526117D01*
X184424594Y-100615476D01*
X184335652Y-100680097D01*
X184265354Y-100731172D01*
X184265352Y-100731174D01*
X184265351Y-100731174D01*
X184126174Y-100870351D01*
X184126174Y-100870352D01*
X184126172Y-100870354D01*
X184079103Y-100935139D01*
X184010476Y-101029594D01*
X183921117Y-101204970D01*
X183860290Y-101392173D01*
X183846973Y-101476258D01*
X183817044Y-101539393D01*
X183757732Y-101576324D01*
X183687869Y-101575326D01*
X183629637Y-101536716D01*
X183601523Y-101472752D01*
X183600500Y-101456860D01*
X183600500Y-100760096D01*
X183620185Y-100693057D01*
X183636814Y-100672420D01*
X187755478Y-96553755D01*
X187816799Y-96520272D01*
X187881473Y-96523506D01*
X187923757Y-96537246D01*
X188133713Y-96570500D01*
X188133714Y-96570500D01*
X188346286Y-96570500D01*
X188346287Y-96570500D01*
X188556243Y-96537246D01*
X188758412Y-96471557D01*
X188947816Y-96375051D01*
X189034138Y-96312335D01*
X189119786Y-96250109D01*
X189119788Y-96250106D01*
X189119792Y-96250104D01*
X189270104Y-96099792D01*
X189270106Y-96099788D01*
X189270109Y-96099786D01*
X189395048Y-95927820D01*
X189395047Y-95927820D01*
X189395051Y-95927816D01*
X189491557Y-95738412D01*
X189557246Y-95536243D01*
X189590500Y-95326287D01*
X189590500Y-95113713D01*
X189557246Y-94903757D01*
X189491557Y-94701588D01*
X189395051Y-94512184D01*
X189395049Y-94512181D01*
X189395048Y-94512179D01*
X189270109Y-94340213D01*
X189119786Y-94189890D01*
X188947820Y-94064951D01*
X188758414Y-93968444D01*
X188758413Y-93968443D01*
X188758412Y-93968443D01*
X188556243Y-93902754D01*
X188556241Y-93902753D01*
X188556240Y-93902753D01*
X188394957Y-93877208D01*
X188346287Y-93869500D01*
X188133713Y-93869500D01*
X188085042Y-93877208D01*
X187923760Y-93902753D01*
X187721585Y-93968444D01*
X187532179Y-94064951D01*
X187360213Y-94189890D01*
X187209890Y-94340213D01*
X187084949Y-94512182D01*
X187080484Y-94520946D01*
X187032509Y-94571742D01*
X186964688Y-94588536D01*
X186898553Y-94565998D01*
X186859516Y-94520946D01*
X186855050Y-94512182D01*
X186730109Y-94340213D01*
X186579786Y-94189890D01*
X186407820Y-94064951D01*
X186218414Y-93968444D01*
X186218413Y-93968443D01*
X186218412Y-93968443D01*
X186016243Y-93902754D01*
X186016241Y-93902753D01*
X186016240Y-93902753D01*
X185854957Y-93877208D01*
X185806287Y-93869500D01*
X185593713Y-93869500D01*
X185545042Y-93877208D01*
X185383760Y-93902753D01*
X185181585Y-93968444D01*
X185090795Y-94014704D01*
X185022125Y-94027600D01*
X184957385Y-94001323D01*
X184917128Y-93944217D01*
X184910500Y-93904219D01*
X184910500Y-73399059D01*
X184910501Y-73399046D01*
X184910501Y-73230945D01*
X184910501Y-73230943D01*
X184869577Y-73078215D01*
X184840639Y-73028095D01*
X184790520Y-72941284D01*
X184678716Y-72829480D01*
X184678715Y-72829479D01*
X184674385Y-72825149D01*
X184674374Y-72825139D01*
X184334574Y-72485339D01*
X184301089Y-72424016D01*
X184300638Y-72421849D01*
X184269738Y-72266510D01*
X184269737Y-72266503D01*
X184256062Y-72233489D01*
X184209397Y-72120827D01*
X184209390Y-72120814D01*
X184121789Y-71989711D01*
X184121786Y-71989707D01*
X184010292Y-71878213D01*
X184010288Y-71878210D01*
X183879185Y-71790609D01*
X183879172Y-71790602D01*
X183733501Y-71730264D01*
X183733489Y-71730261D01*
X183578845Y-71699500D01*
X183578842Y-71699500D01*
X183421158Y-71699500D01*
X183421155Y-71699500D01*
X183266510Y-71730261D01*
X183266498Y-71730264D01*
X183120827Y-71790602D01*
X183120814Y-71790609D01*
X182989711Y-71878210D01*
X182989707Y-71878213D01*
X182878213Y-71989707D01*
X182878210Y-71989711D01*
X182790609Y-72120814D01*
X182790602Y-72120827D01*
X182730264Y-72266498D01*
X182730261Y-72266510D01*
X182699500Y-72421153D01*
X182699500Y-72578846D01*
X182730261Y-72733489D01*
X182730264Y-72733501D01*
X182790602Y-72879172D01*
X182790609Y-72879185D01*
X182878210Y-73010288D01*
X182878213Y-73010292D01*
X182989707Y-73121786D01*
X182989711Y-73121789D01*
X183120814Y-73209390D01*
X183120827Y-73209397D01*
X183266498Y-73269735D01*
X183266503Y-73269737D01*
X183331147Y-73282595D01*
X183421849Y-73300638D01*
X183483760Y-73333023D01*
X183485339Y-73334574D01*
X183673181Y-73522416D01*
X183706666Y-73583739D01*
X183709500Y-73610097D01*
X183709500Y-93746000D01*
X183689815Y-93813039D01*
X183637011Y-93858794D01*
X183585500Y-93870000D01*
X183410000Y-93870000D01*
X183410000Y-94775439D01*
X183356853Y-94744755D01*
X183227143Y-94710000D01*
X183092857Y-94710000D01*
X182963147Y-94744755D01*
X182910000Y-94775439D01*
X182910000Y-93870000D01*
X182262155Y-93870000D01*
X182202627Y-93876401D01*
X182202620Y-93876403D01*
X182067913Y-93926645D01*
X182067906Y-93926649D01*
X181952812Y-94012809D01*
X181952809Y-94012812D01*
X181866649Y-94127906D01*
X181866646Y-94127912D01*
X181817577Y-94259471D01*
X181775705Y-94315404D01*
X181710241Y-94339821D01*
X181641968Y-94324969D01*
X181613714Y-94303818D01*
X181499786Y-94189890D01*
X181327815Y-94064948D01*
X181327814Y-94064947D01*
X181288205Y-94044765D01*
X181237409Y-93996791D01*
X181220500Y-93934281D01*
X181220500Y-88540945D01*
X181220500Y-88540943D01*
X181179577Y-88388216D01*
X181179577Y-88388215D01*
X181179577Y-88388214D01*
X181150639Y-88338095D01*
X181150637Y-88338092D01*
X181100520Y-88251284D01*
X180988716Y-88139480D01*
X180988715Y-88139479D01*
X180984385Y-88135149D01*
X180984374Y-88135139D01*
X169770388Y-76921153D01*
X172699500Y-76921153D01*
X172699500Y-77078846D01*
X172730261Y-77233489D01*
X172730264Y-77233501D01*
X172790602Y-77379172D01*
X172790609Y-77379185D01*
X172878210Y-77510288D01*
X172878213Y-77510292D01*
X172989707Y-77621786D01*
X172989711Y-77621789D01*
X173120814Y-77709390D01*
X173120827Y-77709397D01*
X173258693Y-77766502D01*
X173266503Y-77769737D01*
X173421153Y-77800499D01*
X173421156Y-77800500D01*
X173421158Y-77800500D01*
X173578844Y-77800500D01*
X173578845Y-77800499D01*
X173733497Y-77769737D01*
X173879179Y-77709394D01*
X174010289Y-77621789D01*
X174047331Y-77584747D01*
X174108653Y-77551261D01*
X174178345Y-77556245D01*
X174234279Y-77598115D01*
X174258697Y-77663579D01*
X174249575Y-77719878D01*
X174230263Y-77766502D01*
X174230261Y-77766510D01*
X174199500Y-77921153D01*
X174199500Y-78078846D01*
X174230261Y-78233489D01*
X174230264Y-78233501D01*
X174290602Y-78379172D01*
X174290609Y-78379185D01*
X174378210Y-78510288D01*
X174378213Y-78510292D01*
X174489707Y-78621786D01*
X174489711Y-78621789D01*
X174620814Y-78709390D01*
X174620827Y-78709397D01*
X174766498Y-78769735D01*
X174766503Y-78769737D01*
X174921153Y-78800499D01*
X174921156Y-78800500D01*
X174921158Y-78800500D01*
X175078844Y-78800500D01*
X175078845Y-78800499D01*
X175233497Y-78769737D01*
X175346166Y-78723067D01*
X175379172Y-78709397D01*
X175379172Y-78709396D01*
X175379179Y-78709394D01*
X175510289Y-78621789D01*
X175621789Y-78510289D01*
X175709394Y-78379179D01*
X175769737Y-78233497D01*
X175789113Y-78136085D01*
X175800638Y-78078150D01*
X175833023Y-78016239D01*
X175834514Y-78014720D01*
X176212417Y-77636819D01*
X176273740Y-77603334D01*
X176300098Y-77600500D01*
X176920234Y-77600500D01*
X176987273Y-77620185D01*
X176989125Y-77621398D01*
X177120814Y-77709390D01*
X177120827Y-77709397D01*
X177258693Y-77766502D01*
X177266503Y-77769737D01*
X177421153Y-77800499D01*
X177421156Y-77800500D01*
X177421158Y-77800500D01*
X177578844Y-77800500D01*
X177578845Y-77800499D01*
X177733497Y-77769737D01*
X177879179Y-77709394D01*
X178010289Y-77621789D01*
X178121789Y-77510289D01*
X178209394Y-77379179D01*
X178269737Y-77233497D01*
X178300500Y-77078842D01*
X178300500Y-76921158D01*
X178300500Y-76921155D01*
X178300499Y-76921153D01*
X178269738Y-76766510D01*
X178269737Y-76766503D01*
X178269735Y-76766498D01*
X178209396Y-76620825D01*
X178209394Y-76620822D01*
X178209394Y-76620821D01*
X178174694Y-76568889D01*
X178153816Y-76502215D01*
X178172300Y-76434835D01*
X178174676Y-76431136D01*
X178209394Y-76379179D01*
X178269737Y-76233497D01*
X178300500Y-76078842D01*
X178300500Y-75921158D01*
X178300500Y-75921155D01*
X178300499Y-75921153D01*
X178269738Y-75766510D01*
X178269737Y-75766503D01*
X178250000Y-75718853D01*
X178209397Y-75620827D01*
X178209390Y-75620814D01*
X178121789Y-75489711D01*
X178121786Y-75489707D01*
X178010292Y-75378213D01*
X178010288Y-75378210D01*
X177879185Y-75290609D01*
X177879172Y-75290602D01*
X177733501Y-75230264D01*
X177733489Y-75230261D01*
X177578845Y-75199500D01*
X177578842Y-75199500D01*
X177421158Y-75199500D01*
X177421155Y-75199500D01*
X177266510Y-75230261D01*
X177266498Y-75230264D01*
X177120827Y-75290602D01*
X177120814Y-75290609D01*
X176989125Y-75378602D01*
X176922447Y-75399480D01*
X176920234Y-75399500D01*
X174586670Y-75399500D01*
X174586654Y-75399499D01*
X174579058Y-75399499D01*
X174420943Y-75399499D01*
X174344579Y-75419961D01*
X174268214Y-75440423D01*
X174268209Y-75440426D01*
X174131290Y-75519475D01*
X174131282Y-75519481D01*
X173485339Y-76165425D01*
X173424016Y-76198910D01*
X173421850Y-76199361D01*
X173266508Y-76230261D01*
X173266498Y-76230264D01*
X173120827Y-76290602D01*
X173120814Y-76290609D01*
X172989711Y-76378210D01*
X172989707Y-76378213D01*
X172878213Y-76489707D01*
X172878210Y-76489711D01*
X172790609Y-76620814D01*
X172790602Y-76620827D01*
X172730264Y-76766498D01*
X172730261Y-76766510D01*
X172699500Y-76921153D01*
X169770388Y-76921153D01*
X168834574Y-75985339D01*
X168801089Y-75924016D01*
X168800638Y-75921849D01*
X168769738Y-75766510D01*
X168769737Y-75766503D01*
X168750000Y-75718853D01*
X168709397Y-75620827D01*
X168709390Y-75620814D01*
X168621789Y-75489711D01*
X168621786Y-75489707D01*
X168510292Y-75378213D01*
X168510288Y-75378210D01*
X168379185Y-75290609D01*
X168379172Y-75290602D01*
X168233501Y-75230264D01*
X168233489Y-75230261D01*
X168078845Y-75199500D01*
X168078842Y-75199500D01*
X167921158Y-75199500D01*
X167921155Y-75199500D01*
X167766510Y-75230261D01*
X167766498Y-75230264D01*
X167620827Y-75290602D01*
X167620814Y-75290609D01*
X167489711Y-75378210D01*
X167489707Y-75378213D01*
X167378213Y-75489707D01*
X167353102Y-75527289D01*
X167299489Y-75572093D01*
X167230164Y-75580800D01*
X167167137Y-75550645D01*
X167146898Y-75527289D01*
X167121786Y-75489707D01*
X167010292Y-75378213D01*
X167010288Y-75378210D01*
X166879185Y-75290609D01*
X166879172Y-75290602D01*
X166733501Y-75230264D01*
X166733489Y-75230261D01*
X166578845Y-75199500D01*
X166578842Y-75199500D01*
X166449097Y-75199500D01*
X166382058Y-75179815D01*
X166336303Y-75127011D01*
X166326359Y-75057853D01*
X166355384Y-74994297D01*
X166361416Y-74987819D01*
X169712416Y-71636819D01*
X169773739Y-71603334D01*
X169800097Y-71600500D01*
X176913331Y-71600500D01*
X176913347Y-71600501D01*
X176920943Y-71600501D01*
X177079054Y-71600501D01*
X177079057Y-71600501D01*
X177231785Y-71559577D01*
X177281904Y-71530639D01*
X177368716Y-71480520D01*
X177480520Y-71368716D01*
X177480520Y-71368714D01*
X177490728Y-71358507D01*
X177490730Y-71358504D01*
X179368713Y-69480521D01*
X179368716Y-69480520D01*
X179480520Y-69368716D01*
X179530639Y-69281904D01*
X179559577Y-69231785D01*
X179600500Y-69079057D01*
X179600500Y-68920943D01*
X179600500Y-65089060D01*
X179600501Y-65089047D01*
X179600501Y-64920944D01*
X179600501Y-64920943D01*
X179559577Y-64768216D01*
X179549060Y-64750000D01*
X179480524Y-64631290D01*
X179480518Y-64631282D01*
X179334573Y-64485337D01*
X179301088Y-64424014D01*
X179300637Y-64421847D01*
X179269738Y-64266510D01*
X179269737Y-64266503D01*
X179209794Y-64121786D01*
X179209397Y-64120827D01*
X179209390Y-64120814D01*
X179121789Y-63989711D01*
X179121786Y-63989707D01*
X179010292Y-63878213D01*
X179010288Y-63878210D01*
X178879185Y-63790609D01*
X178879172Y-63790602D01*
X178733501Y-63730264D01*
X178733489Y-63730261D01*
X178578845Y-63699500D01*
X178578842Y-63699500D01*
X178421158Y-63699500D01*
X178421155Y-63699500D01*
X178266510Y-63730261D01*
X178266498Y-63730264D01*
X178120827Y-63790602D01*
X178120814Y-63790609D01*
X177989711Y-63878210D01*
X177989707Y-63878213D01*
X177878213Y-63989707D01*
X177878210Y-63989711D01*
X177790609Y-64120814D01*
X177790602Y-64120827D01*
X177730264Y-64266498D01*
X177730261Y-64266510D01*
X177699500Y-64421153D01*
X177699500Y-64578846D01*
X177730261Y-64733489D01*
X177730264Y-64733501D01*
X177790602Y-64879172D01*
X177790609Y-64879185D01*
X177878210Y-65010288D01*
X177878213Y-65010292D01*
X177989707Y-65121786D01*
X177989711Y-65121789D01*
X178120814Y-65209390D01*
X178120827Y-65209397D01*
X178208230Y-65245599D01*
X178266503Y-65269737D01*
X178299691Y-65276338D01*
X178361600Y-65308721D01*
X178396176Y-65369436D01*
X178399500Y-65397955D01*
X178399500Y-68699903D01*
X178379815Y-68766942D01*
X178363181Y-68787584D01*
X176787584Y-70363181D01*
X176726261Y-70396666D01*
X176699903Y-70399500D01*
X169579057Y-70399500D01*
X169420943Y-70399500D01*
X169268215Y-70440423D01*
X169268214Y-70440423D01*
X169268212Y-70440424D01*
X169268209Y-70440425D01*
X169218096Y-70469359D01*
X169218095Y-70469360D01*
X169174689Y-70494420D01*
X169131285Y-70519479D01*
X169131282Y-70519481D01*
X169019478Y-70631286D01*
X162631284Y-77019481D01*
X162519483Y-77131281D01*
X162519481Y-77131284D01*
X162440423Y-77268214D01*
X162440423Y-77268215D01*
X162399499Y-77420943D01*
X162399499Y-77420945D01*
X162399499Y-77579054D01*
X162399498Y-77579054D01*
X162404606Y-77598115D01*
X162440423Y-77731785D01*
X162460467Y-77766502D01*
X162467887Y-77779353D01*
X162484500Y-77841353D01*
X162484500Y-78658645D01*
X162467887Y-78720645D01*
X162440424Y-78768211D01*
X162440423Y-78768215D01*
X162399499Y-78920943D01*
X162399499Y-78920945D01*
X162399499Y-79079054D01*
X162399498Y-79079054D01*
X162416567Y-79142754D01*
X162440423Y-79231785D01*
X162519481Y-79368716D01*
X162519483Y-79368718D01*
X164948181Y-81797416D01*
X164981666Y-81858739D01*
X164984500Y-81885097D01*
X164984500Y-85929676D01*
X164984499Y-85929694D01*
X164984499Y-86095400D01*
X164984498Y-86095400D01*
X165025423Y-86248131D01*
X165054358Y-86298246D01*
X165054359Y-86298250D01*
X165054360Y-86298250D01*
X165104479Y-86385060D01*
X165104481Y-86385063D01*
X165223349Y-86503931D01*
X165223355Y-86503936D01*
X172497553Y-93778134D01*
X172531038Y-93839457D01*
X172526054Y-93909149D01*
X172484182Y-93965082D01*
X172466167Y-93976300D01*
X172292180Y-94064951D01*
X172120215Y-94189889D01*
X172006673Y-94303431D01*
X171945350Y-94336915D01*
X171875658Y-94331931D01*
X171819725Y-94290059D01*
X171802810Y-94259082D01*
X171753797Y-94127671D01*
X171753793Y-94127664D01*
X171667547Y-94012455D01*
X171667544Y-94012452D01*
X171552335Y-93926206D01*
X171552328Y-93926202D01*
X171417482Y-93875908D01*
X171417483Y-93875908D01*
X171357883Y-93869501D01*
X171357881Y-93869500D01*
X171357873Y-93869500D01*
X171357864Y-93869500D01*
X169562129Y-93869500D01*
X169562123Y-93869501D01*
X169502516Y-93875908D01*
X169367671Y-93926202D01*
X169367664Y-93926206D01*
X169252455Y-94012452D01*
X169252452Y-94012455D01*
X169166206Y-94127664D01*
X169166203Y-94127669D01*
X169117189Y-94259083D01*
X169075317Y-94315016D01*
X169009853Y-94339433D01*
X168941580Y-94324581D01*
X168913326Y-94303430D01*
X168799786Y-94189890D01*
X168627820Y-94064951D01*
X168438414Y-93968444D01*
X168438413Y-93968443D01*
X168438412Y-93968443D01*
X168236243Y-93902754D01*
X168236241Y-93902753D01*
X168236240Y-93902753D01*
X168074957Y-93877208D01*
X168026287Y-93869500D01*
X167813713Y-93869500D01*
X167785006Y-93874046D01*
X167603757Y-93902753D01*
X167561473Y-93916492D01*
X167491632Y-93918486D01*
X167435476Y-93886241D01*
X164136819Y-90587584D01*
X164103334Y-90526261D01*
X164100500Y-90499903D01*
X164100500Y-84079765D01*
X164120185Y-84012726D01*
X164121398Y-84010874D01*
X164209390Y-83879185D01*
X164209390Y-83879184D01*
X164209394Y-83879179D01*
X164269737Y-83733497D01*
X164300500Y-83578842D01*
X164300500Y-83421158D01*
X164300500Y-83421155D01*
X164300499Y-83421153D01*
X164269738Y-83266510D01*
X164269737Y-83266503D01*
X164269735Y-83266498D01*
X164209397Y-83120827D01*
X164209390Y-83120814D01*
X164121789Y-82989711D01*
X164121786Y-82989707D01*
X164010292Y-82878213D01*
X164010288Y-82878210D01*
X163879185Y-82790609D01*
X163879172Y-82790602D01*
X163733501Y-82730264D01*
X163733489Y-82730261D01*
X163578845Y-82699500D01*
X163578842Y-82699500D01*
X163421158Y-82699500D01*
X163421155Y-82699500D01*
X163266510Y-82730261D01*
X163266498Y-82730264D01*
X163120827Y-82790602D01*
X163120814Y-82790609D01*
X162989711Y-82878210D01*
X162989707Y-82878213D01*
X162878213Y-82989707D01*
X162878210Y-82989711D01*
X162790609Y-83120814D01*
X162790602Y-83120827D01*
X162730264Y-83266498D01*
X162730261Y-83266510D01*
X162699500Y-83421153D01*
X162699500Y-83578846D01*
X162730261Y-83733489D01*
X162730264Y-83733501D01*
X162790602Y-83879172D01*
X162790609Y-83879185D01*
X162878602Y-84010874D01*
X162899480Y-84077551D01*
X162899500Y-84079765D01*
X162899500Y-90713330D01*
X162899499Y-90713348D01*
X162899499Y-90879054D01*
X162899498Y-90879054D01*
X162940423Y-91031785D01*
X162969358Y-91081900D01*
X162969359Y-91081904D01*
X162969360Y-91081904D01*
X163019479Y-91168714D01*
X163019481Y-91168717D01*
X163138349Y-91287585D01*
X163138355Y-91287590D01*
X165508584Y-93657819D01*
X165542069Y-93719142D01*
X165537085Y-93788834D01*
X165495213Y-93844767D01*
X165429749Y-93869184D01*
X165420903Y-93869500D01*
X165273713Y-93869500D01*
X165225042Y-93877208D01*
X165063760Y-93902753D01*
X164861585Y-93968444D01*
X164672179Y-94064951D01*
X164500213Y-94189890D01*
X164349890Y-94340213D01*
X164224949Y-94512182D01*
X164220484Y-94520946D01*
X164172509Y-94571742D01*
X164104688Y-94588536D01*
X164038553Y-94565998D01*
X163999516Y-94520946D01*
X163995050Y-94512182D01*
X163870109Y-94340213D01*
X163719786Y-94189890D01*
X163547820Y-94064951D01*
X163358414Y-93968444D01*
X163358413Y-93968443D01*
X163358412Y-93968443D01*
X163156243Y-93902754D01*
X163156241Y-93902753D01*
X163156240Y-93902753D01*
X162994957Y-93877208D01*
X162946287Y-93869500D01*
X162733713Y-93869500D01*
X162685042Y-93877208D01*
X162523760Y-93902753D01*
X162321585Y-93968444D01*
X162132179Y-94064951D01*
X161960213Y-94189890D01*
X161809890Y-94340213D01*
X161684949Y-94512182D01*
X161680484Y-94520946D01*
X161632509Y-94571742D01*
X161564688Y-94588536D01*
X161498553Y-94565998D01*
X161459516Y-94520946D01*
X161455050Y-94512182D01*
X161330109Y-94340213D01*
X161179786Y-94189890D01*
X161007820Y-94064951D01*
X160818414Y-93968444D01*
X160818413Y-93968443D01*
X160818412Y-93968443D01*
X160616243Y-93902754D01*
X160616241Y-93902753D01*
X160616240Y-93902753D01*
X160454957Y-93877208D01*
X160406287Y-93869500D01*
X160193713Y-93869500D01*
X160145042Y-93877208D01*
X159983760Y-93902753D01*
X159781585Y-93968444D01*
X159592179Y-94064951D01*
X159420215Y-94189889D01*
X159306285Y-94303819D01*
X159244962Y-94337303D01*
X159175270Y-94332319D01*
X159119337Y-94290447D01*
X159102422Y-94259470D01*
X159053354Y-94127913D01*
X159053350Y-94127906D01*
X158967190Y-94012812D01*
X158967187Y-94012809D01*
X158852093Y-93926649D01*
X158852086Y-93926645D01*
X158717379Y-93876403D01*
X158717372Y-93876401D01*
X158657844Y-93870000D01*
X158010000Y-93870000D01*
X158010000Y-94775439D01*
X157956853Y-94744755D01*
X157827143Y-94710000D01*
X157692857Y-94710000D01*
X157563147Y-94744755D01*
X157510000Y-94775439D01*
X157510000Y-93870000D01*
X156862155Y-93870000D01*
X156802627Y-93876401D01*
X156802620Y-93876403D01*
X156667913Y-93926645D01*
X156667906Y-93926649D01*
X156552812Y-94012809D01*
X156552809Y-94012812D01*
X156466649Y-94127906D01*
X156466646Y-94127912D01*
X156417577Y-94259471D01*
X156375705Y-94315404D01*
X156310241Y-94339821D01*
X156241968Y-94324969D01*
X156213714Y-94303818D01*
X156099786Y-94189890D01*
X155927820Y-94064951D01*
X155738414Y-93968444D01*
X155738413Y-93968443D01*
X155738412Y-93968443D01*
X155536243Y-93902754D01*
X155536241Y-93902753D01*
X155536240Y-93902753D01*
X155374957Y-93877208D01*
X155326287Y-93869500D01*
X155113713Y-93869500D01*
X155065042Y-93877208D01*
X154903760Y-93902753D01*
X154701585Y-93968444D01*
X154512179Y-94064951D01*
X154340213Y-94189890D01*
X154189890Y-94340213D01*
X154064949Y-94512182D01*
X154060484Y-94520946D01*
X154012509Y-94571742D01*
X153944688Y-94588536D01*
X153878553Y-94565998D01*
X153839516Y-94520946D01*
X153835050Y-94512182D01*
X153710109Y-94340213D01*
X153559786Y-94189890D01*
X153387820Y-94064951D01*
X153198414Y-93968444D01*
X153198413Y-93968443D01*
X153198412Y-93968443D01*
X152996243Y-93902754D01*
X152996241Y-93902753D01*
X152996240Y-93902753D01*
X152834957Y-93877208D01*
X152786287Y-93869500D01*
X152573713Y-93869500D01*
X152525042Y-93877208D01*
X152363760Y-93902753D01*
X152161585Y-93968444D01*
X151972179Y-94064951D01*
X151800213Y-94189890D01*
X151649890Y-94340213D01*
X151524949Y-94512182D01*
X151520484Y-94520946D01*
X151472509Y-94571742D01*
X151404688Y-94588536D01*
X151338553Y-94565998D01*
X151299516Y-94520946D01*
X151295050Y-94512182D01*
X151170109Y-94340213D01*
X151019786Y-94189890D01*
X150847820Y-94064951D01*
X150658414Y-93968444D01*
X150658413Y-93968443D01*
X150658412Y-93968443D01*
X150456243Y-93902754D01*
X150456241Y-93902753D01*
X150456240Y-93902753D01*
X150294957Y-93877208D01*
X150246287Y-93869500D01*
X150033713Y-93869500D01*
X149985042Y-93877208D01*
X149823760Y-93902753D01*
X149621585Y-93968444D01*
X149432179Y-94064951D01*
X149260213Y-94189890D01*
X149109890Y-94340213D01*
X148984949Y-94512182D01*
X148980484Y-94520946D01*
X148932509Y-94571742D01*
X148864688Y-94588536D01*
X148798553Y-94565998D01*
X148759516Y-94520946D01*
X148755050Y-94512182D01*
X148630109Y-94340213D01*
X148479786Y-94189890D01*
X148307820Y-94064951D01*
X148118414Y-93968444D01*
X148118413Y-93968443D01*
X148118412Y-93968443D01*
X147916243Y-93902754D01*
X147916241Y-93902753D01*
X147916240Y-93902753D01*
X147754957Y-93877208D01*
X147706287Y-93869500D01*
X147493713Y-93869500D01*
X147445042Y-93877208D01*
X147283760Y-93902753D01*
X147081585Y-93968444D01*
X146892179Y-94064951D01*
X146720215Y-94189889D01*
X146606285Y-94303819D01*
X146544962Y-94337303D01*
X146475270Y-94332319D01*
X146419337Y-94290447D01*
X146402422Y-94259470D01*
X146353354Y-94127913D01*
X146353350Y-94127906D01*
X146267190Y-94012812D01*
X146267187Y-94012809D01*
X146152093Y-93926649D01*
X146152086Y-93926645D01*
X146017379Y-93876403D01*
X146017372Y-93876401D01*
X145957844Y-93870000D01*
X145310000Y-93870000D01*
X145310000Y-94775439D01*
X145256853Y-94744755D01*
X145127143Y-94710000D01*
X144992857Y-94710000D01*
X144863147Y-94744755D01*
X144810000Y-94775439D01*
X144810000Y-93870000D01*
X144162155Y-93870000D01*
X144102627Y-93876401D01*
X144102620Y-93876403D01*
X143967913Y-93926645D01*
X143967906Y-93926649D01*
X143852812Y-94012809D01*
X143852809Y-94012812D01*
X143766649Y-94127906D01*
X143766646Y-94127912D01*
X143717577Y-94259471D01*
X143675705Y-94315404D01*
X143610241Y-94339821D01*
X143541968Y-94324969D01*
X143513714Y-94303818D01*
X143399786Y-94189890D01*
X143227820Y-94064951D01*
X143038414Y-93968444D01*
X143038413Y-93968443D01*
X143038412Y-93968443D01*
X142836243Y-93902754D01*
X142836241Y-93902753D01*
X142836240Y-93902753D01*
X142674957Y-93877208D01*
X142626287Y-93869500D01*
X142413713Y-93869500D01*
X142365042Y-93877208D01*
X142203760Y-93902753D01*
X142001585Y-93968444D01*
X141812179Y-94064951D01*
X141640213Y-94189890D01*
X141489890Y-94340213D01*
X141364949Y-94512182D01*
X141360484Y-94520946D01*
X141312509Y-94571742D01*
X141244688Y-94588536D01*
X141178553Y-94565998D01*
X141139516Y-94520946D01*
X141135050Y-94512182D01*
X141010109Y-94340213D01*
X140859786Y-94189890D01*
X140687820Y-94064951D01*
X140498414Y-93968444D01*
X140498413Y-93968443D01*
X140498412Y-93968443D01*
X140296243Y-93902754D01*
X140296241Y-93902753D01*
X140296240Y-93902753D01*
X140134957Y-93877208D01*
X140086287Y-93869500D01*
X139873713Y-93869500D01*
X139825042Y-93877208D01*
X139663760Y-93902753D01*
X139461585Y-93968444D01*
X139272179Y-94064951D01*
X139100213Y-94189890D01*
X138949890Y-94340213D01*
X138824951Y-94512179D01*
X138728444Y-94701585D01*
X138662753Y-94903760D01*
X138629500Y-95113713D01*
X138629500Y-95326286D01*
X138662754Y-95536244D01*
X138662754Y-95536247D01*
X138676491Y-95578523D01*
X138678486Y-95648364D01*
X138646241Y-95704522D01*
X137431286Y-96919478D01*
X137319481Y-97031282D01*
X137319480Y-97031284D01*
X137269360Y-97118095D01*
X137240423Y-97168215D01*
X137239169Y-97172894D01*
X137233085Y-97183928D01*
X137212982Y-97203864D01*
X137195222Y-97225905D01*
X137188503Y-97228141D01*
X137183475Y-97233128D01*
X137155788Y-97239030D01*
X137128928Y-97247971D01*
X137122065Y-97246219D01*
X137115141Y-97247696D01*
X137088659Y-97237693D01*
X137061229Y-97230693D01*
X137056403Y-97225510D01*
X137049778Y-97223008D01*
X137032906Y-97200273D01*
X137013617Y-97179557D01*
X137011788Y-97171818D01*
X137008139Y-97166901D01*
X137007147Y-97152180D01*
X137000500Y-97124050D01*
X137000500Y-85631947D01*
X140250000Y-85631947D01*
X140250000Y-85868052D01*
X140286934Y-86101247D01*
X140359897Y-86325802D01*
X140467087Y-86536174D01*
X140527338Y-86619104D01*
X140527340Y-86619105D01*
X141226212Y-85920233D01*
X141237482Y-85962292D01*
X141309890Y-86087708D01*
X141412292Y-86190110D01*
X141537708Y-86262518D01*
X141579765Y-86273787D01*
X140880893Y-86972658D01*
X140963828Y-87032914D01*
X141174197Y-87140102D01*
X141398752Y-87213065D01*
X141398751Y-87213065D01*
X141631948Y-87250000D01*
X141868052Y-87250000D01*
X142101247Y-87213065D01*
X142325802Y-87140102D01*
X142536163Y-87032918D01*
X142536169Y-87032914D01*
X142619104Y-86972658D01*
X142619105Y-86972658D01*
X141920233Y-86273787D01*
X141962292Y-86262518D01*
X142087708Y-86190110D01*
X142190110Y-86087708D01*
X142262518Y-85962292D01*
X142273787Y-85920234D01*
X142972658Y-86619105D01*
X142972658Y-86619104D01*
X143032914Y-86536169D01*
X143032918Y-86536163D01*
X143140102Y-86325802D01*
X143213065Y-86101247D01*
X143250000Y-85868052D01*
X143250000Y-85631947D01*
X146750000Y-85631947D01*
X146750000Y-85868052D01*
X146786934Y-86101247D01*
X146859897Y-86325802D01*
X146967087Y-86536174D01*
X147027338Y-86619104D01*
X147027340Y-86619105D01*
X147726212Y-85920233D01*
X147737482Y-85962292D01*
X147809890Y-86087708D01*
X147912292Y-86190110D01*
X148037708Y-86262518D01*
X148079765Y-86273787D01*
X147380893Y-86972658D01*
X147463828Y-87032914D01*
X147674197Y-87140102D01*
X147898752Y-87213065D01*
X147898751Y-87213065D01*
X148131948Y-87250000D01*
X148368052Y-87250000D01*
X148601247Y-87213065D01*
X148825802Y-87140102D01*
X149036163Y-87032918D01*
X149036169Y-87032914D01*
X149119104Y-86972658D01*
X149119105Y-86972658D01*
X148420233Y-86273787D01*
X148462292Y-86262518D01*
X148587708Y-86190110D01*
X148690110Y-86087708D01*
X148762518Y-85962292D01*
X148773787Y-85920234D01*
X149472658Y-86619105D01*
X149472658Y-86619104D01*
X149532914Y-86536169D01*
X149532918Y-86536163D01*
X149640102Y-86325802D01*
X149713065Y-86101247D01*
X149750000Y-85868052D01*
X149750000Y-85631947D01*
X149713065Y-85398752D01*
X149640102Y-85174197D01*
X149532914Y-84963828D01*
X149472658Y-84880894D01*
X149472658Y-84880893D01*
X148773787Y-85579765D01*
X148762518Y-85537708D01*
X148690110Y-85412292D01*
X148587708Y-85309890D01*
X148462292Y-85237482D01*
X148420234Y-85226212D01*
X149119105Y-84527340D01*
X149119104Y-84527338D01*
X149036174Y-84467087D01*
X148825802Y-84359897D01*
X148601247Y-84286934D01*
X148601248Y-84286934D01*
X148368052Y-84250000D01*
X148131948Y-84250000D01*
X147898752Y-84286934D01*
X147674197Y-84359897D01*
X147463830Y-84467084D01*
X147380894Y-84527340D01*
X148079766Y-85226212D01*
X148037708Y-85237482D01*
X147912292Y-85309890D01*
X147809890Y-85412292D01*
X147737482Y-85537708D01*
X147726212Y-85579766D01*
X147027340Y-84880894D01*
X146967084Y-84963830D01*
X146859897Y-85174197D01*
X146786934Y-85398752D01*
X146750000Y-85631947D01*
X143250000Y-85631947D01*
X143213065Y-85398752D01*
X143140102Y-85174197D01*
X143032914Y-84963828D01*
X142972658Y-84880894D01*
X142972658Y-84880893D01*
X142273787Y-85579765D01*
X142262518Y-85537708D01*
X142190110Y-85412292D01*
X142087708Y-85309890D01*
X141962292Y-85237482D01*
X141920234Y-85226212D01*
X142619105Y-84527340D01*
X142619104Y-84527339D01*
X142536174Y-84467087D01*
X142325802Y-84359897D01*
X142101247Y-84286934D01*
X142101248Y-84286934D01*
X141868052Y-84250000D01*
X141631948Y-84250000D01*
X141398752Y-84286934D01*
X141174197Y-84359897D01*
X140963830Y-84467084D01*
X140880894Y-84527340D01*
X141579766Y-85226212D01*
X141537708Y-85237482D01*
X141412292Y-85309890D01*
X141309890Y-85412292D01*
X141237482Y-85537708D01*
X141226212Y-85579766D01*
X140527340Y-84880894D01*
X140467084Y-84963830D01*
X140359897Y-85174197D01*
X140286934Y-85398752D01*
X140250000Y-85631947D01*
X137000500Y-85631947D01*
X137000500Y-81131902D01*
X140249500Y-81131902D01*
X140249500Y-81368097D01*
X140286446Y-81601368D01*
X140359433Y-81825996D01*
X140466657Y-82036433D01*
X140605483Y-82227510D01*
X140772490Y-82394517D01*
X140963567Y-82533343D01*
X141062991Y-82584002D01*
X141174003Y-82640566D01*
X141174005Y-82640566D01*
X141174008Y-82640568D01*
X141294412Y-82679689D01*
X141398631Y-82713553D01*
X141631903Y-82750500D01*
X141631908Y-82750500D01*
X141868097Y-82750500D01*
X142101368Y-82713553D01*
X142325992Y-82640568D01*
X142536433Y-82533343D01*
X142727510Y-82394517D01*
X142894517Y-82227510D01*
X143033343Y-82036433D01*
X143140568Y-81825992D01*
X143213553Y-81601368D01*
X143231175Y-81490109D01*
X143250500Y-81368097D01*
X143250500Y-81131902D01*
X146749500Y-81131902D01*
X146749500Y-81368097D01*
X146786446Y-81601368D01*
X146859433Y-81825996D01*
X146966657Y-82036433D01*
X147105483Y-82227510D01*
X147272490Y-82394517D01*
X147463567Y-82533343D01*
X147562991Y-82584002D01*
X147674003Y-82640566D01*
X147674005Y-82640566D01*
X147674008Y-82640568D01*
X147794412Y-82679689D01*
X147898631Y-82713553D01*
X148131903Y-82750500D01*
X148131908Y-82750500D01*
X148368097Y-82750500D01*
X148601368Y-82713553D01*
X148825992Y-82640568D01*
X149036433Y-82533343D01*
X149227510Y-82394517D01*
X149394517Y-82227510D01*
X149533343Y-82036433D01*
X149640568Y-81825992D01*
X149713553Y-81601368D01*
X149731175Y-81490109D01*
X149750500Y-81368097D01*
X149750500Y-81131902D01*
X149713553Y-80898631D01*
X149640566Y-80674003D01*
X149533342Y-80463566D01*
X149394517Y-80272490D01*
X149227510Y-80105483D01*
X149036433Y-79966657D01*
X148825996Y-79859433D01*
X148601368Y-79786446D01*
X148368097Y-79749500D01*
X148368092Y-79749500D01*
X148131908Y-79749500D01*
X148131903Y-79749500D01*
X147898631Y-79786446D01*
X147674003Y-79859433D01*
X147463566Y-79966657D01*
X147354550Y-80045862D01*
X147272490Y-80105483D01*
X147272488Y-80105485D01*
X147272487Y-80105485D01*
X147105485Y-80272487D01*
X147105485Y-80272488D01*
X147105483Y-80272490D01*
X147061367Y-80333210D01*
X146966657Y-80463566D01*
X146859433Y-80674003D01*
X146786446Y-80898631D01*
X146749500Y-81131902D01*
X143250500Y-81131902D01*
X143213553Y-80898631D01*
X143140566Y-80674003D01*
X143033342Y-80463566D01*
X142894517Y-80272490D01*
X142727510Y-80105483D01*
X142536433Y-79966657D01*
X142325996Y-79859433D01*
X142101368Y-79786446D01*
X141868097Y-79749500D01*
X141868092Y-79749500D01*
X141631908Y-79749500D01*
X141631903Y-79749500D01*
X141398631Y-79786446D01*
X141174003Y-79859433D01*
X140963566Y-79966657D01*
X140854550Y-80045862D01*
X140772490Y-80105483D01*
X140772488Y-80105485D01*
X140772487Y-80105485D01*
X140605485Y-80272487D01*
X140605485Y-80272488D01*
X140605483Y-80272490D01*
X140561367Y-80333210D01*
X140466657Y-80463566D01*
X140359433Y-80674003D01*
X140286446Y-80898631D01*
X140249500Y-81131902D01*
X137000500Y-81131902D01*
X137000500Y-73631947D01*
X140250000Y-73631947D01*
X140250000Y-73868052D01*
X140286934Y-74101247D01*
X140359897Y-74325802D01*
X140467087Y-74536174D01*
X140527338Y-74619104D01*
X140527340Y-74619105D01*
X141226212Y-73920233D01*
X141237482Y-73962292D01*
X141309890Y-74087708D01*
X141412292Y-74190110D01*
X141537708Y-74262518D01*
X141579765Y-74273787D01*
X140880893Y-74972658D01*
X140963828Y-75032914D01*
X141174197Y-75140102D01*
X141398752Y-75213065D01*
X141398751Y-75213065D01*
X141631948Y-75250000D01*
X141868052Y-75250000D01*
X142101247Y-75213065D01*
X142325802Y-75140102D01*
X142536163Y-75032918D01*
X142536169Y-75032914D01*
X142619104Y-74972658D01*
X142619105Y-74972658D01*
X141920233Y-74273787D01*
X141962292Y-74262518D01*
X142087708Y-74190110D01*
X142190110Y-74087708D01*
X142262518Y-73962292D01*
X142273787Y-73920234D01*
X142972658Y-74619105D01*
X142972658Y-74619104D01*
X143032914Y-74536169D01*
X143032918Y-74536163D01*
X143140102Y-74325802D01*
X143213065Y-74101247D01*
X143250000Y-73868052D01*
X143250000Y-73631947D01*
X146750000Y-73631947D01*
X146750000Y-73868052D01*
X146786934Y-74101247D01*
X146859897Y-74325802D01*
X146967087Y-74536174D01*
X147027338Y-74619104D01*
X147027340Y-74619105D01*
X147726212Y-73920233D01*
X147737482Y-73962292D01*
X147809890Y-74087708D01*
X147912292Y-74190110D01*
X148037708Y-74262518D01*
X148079765Y-74273787D01*
X147380893Y-74972658D01*
X147463828Y-75032914D01*
X147674197Y-75140102D01*
X147898752Y-75213065D01*
X147898751Y-75213065D01*
X148131948Y-75250000D01*
X148368052Y-75250000D01*
X148601247Y-75213065D01*
X148825802Y-75140102D01*
X149036163Y-75032918D01*
X149036169Y-75032914D01*
X149119104Y-74972658D01*
X149119105Y-74972658D01*
X148420233Y-74273787D01*
X148462292Y-74262518D01*
X148587708Y-74190110D01*
X148690110Y-74087708D01*
X148762518Y-73962292D01*
X148773787Y-73920234D01*
X149472658Y-74619105D01*
X149472658Y-74619104D01*
X149532914Y-74536169D01*
X149532918Y-74536163D01*
X149640102Y-74325802D01*
X149713065Y-74101247D01*
X149750000Y-73868052D01*
X149750000Y-73631947D01*
X149713065Y-73398752D01*
X149640102Y-73174197D01*
X149532914Y-72963828D01*
X149472658Y-72880894D01*
X149472658Y-72880893D01*
X148773787Y-73579765D01*
X148762518Y-73537708D01*
X148690110Y-73412292D01*
X148587708Y-73309890D01*
X148462292Y-73237482D01*
X148420234Y-73226212D01*
X149119105Y-72527340D01*
X149119104Y-72527338D01*
X149036174Y-72467087D01*
X148825802Y-72359897D01*
X148601247Y-72286934D01*
X148601248Y-72286934D01*
X148368052Y-72250000D01*
X148131948Y-72250000D01*
X147898752Y-72286934D01*
X147674197Y-72359897D01*
X147463830Y-72467084D01*
X147380894Y-72527340D01*
X148079766Y-73226212D01*
X148037708Y-73237482D01*
X147912292Y-73309890D01*
X147809890Y-73412292D01*
X147737482Y-73537708D01*
X147726212Y-73579766D01*
X147027340Y-72880894D01*
X146967084Y-72963830D01*
X146859897Y-73174197D01*
X146786934Y-73398752D01*
X146750000Y-73631947D01*
X143250000Y-73631947D01*
X143213065Y-73398752D01*
X143140102Y-73174197D01*
X143032914Y-72963828D01*
X142972658Y-72880894D01*
X142972658Y-72880893D01*
X142273787Y-73579765D01*
X142262518Y-73537708D01*
X142190110Y-73412292D01*
X142087708Y-73309890D01*
X141962292Y-73237482D01*
X141920234Y-73226212D01*
X142619105Y-72527340D01*
X142619104Y-72527339D01*
X142536174Y-72467087D01*
X142325802Y-72359897D01*
X142101247Y-72286934D01*
X142101248Y-72286934D01*
X141868052Y-72250000D01*
X141631948Y-72250000D01*
X141398752Y-72286934D01*
X141174197Y-72359897D01*
X140963830Y-72467084D01*
X140880894Y-72527340D01*
X141579766Y-73226212D01*
X141537708Y-73237482D01*
X141412292Y-73309890D01*
X141309890Y-73412292D01*
X141237482Y-73537708D01*
X141226212Y-73579766D01*
X140527340Y-72880894D01*
X140467084Y-72963830D01*
X140359897Y-73174197D01*
X140286934Y-73398752D01*
X140250000Y-73631947D01*
X137000500Y-73631947D01*
X137000500Y-69131902D01*
X140249500Y-69131902D01*
X140249500Y-69368097D01*
X140286446Y-69601368D01*
X140359433Y-69825996D01*
X140466657Y-70036433D01*
X140605483Y-70227510D01*
X140772490Y-70394517D01*
X140963567Y-70533343D01*
X141062991Y-70584002D01*
X141174003Y-70640566D01*
X141174005Y-70640566D01*
X141174008Y-70640568D01*
X141266292Y-70670553D01*
X141398631Y-70713553D01*
X141631903Y-70750500D01*
X141631908Y-70750500D01*
X141868097Y-70750500D01*
X142101368Y-70713553D01*
X142134468Y-70702798D01*
X142325992Y-70640568D01*
X142536433Y-70533343D01*
X142727510Y-70394517D01*
X142894517Y-70227510D01*
X143033343Y-70036433D01*
X143093583Y-69918204D01*
X143141558Y-69867409D01*
X143204068Y-69850500D01*
X146795932Y-69850500D01*
X146862971Y-69870185D01*
X146906416Y-69918203D01*
X146966657Y-70036433D01*
X147105483Y-70227510D01*
X147272490Y-70394517D01*
X147463567Y-70533343D01*
X147562991Y-70584002D01*
X147674003Y-70640566D01*
X147674005Y-70640566D01*
X147674008Y-70640568D01*
X147766292Y-70670553D01*
X147898631Y-70713553D01*
X148131903Y-70750500D01*
X148131908Y-70750500D01*
X148368097Y-70750500D01*
X148474126Y-70733705D01*
X148601368Y-70713553D01*
X148727566Y-70672547D01*
X148797404Y-70670553D01*
X148853563Y-70702798D01*
X150515139Y-72364374D01*
X150515149Y-72364385D01*
X150519479Y-72368715D01*
X150519480Y-72368716D01*
X150631284Y-72480520D01*
X150682845Y-72510288D01*
X150718095Y-72530639D01*
X150718097Y-72530641D01*
X150768213Y-72559576D01*
X150768215Y-72559577D01*
X150920942Y-72600500D01*
X150920943Y-72600500D01*
X161920234Y-72600500D01*
X161987273Y-72620185D01*
X161989125Y-72621398D01*
X162120814Y-72709390D01*
X162120827Y-72709397D01*
X162266498Y-72769735D01*
X162266503Y-72769737D01*
X162421153Y-72800499D01*
X162421156Y-72800500D01*
X162421158Y-72800500D01*
X162578844Y-72800500D01*
X162578845Y-72800499D01*
X162733497Y-72769737D01*
X162879179Y-72709394D01*
X163010289Y-72621789D01*
X163121789Y-72510289D01*
X163209394Y-72379179D01*
X163269737Y-72233497D01*
X163300500Y-72078842D01*
X163300500Y-71921158D01*
X163300500Y-71921155D01*
X163300499Y-71921153D01*
X163274531Y-71790606D01*
X163269737Y-71766503D01*
X163269735Y-71766498D01*
X163209397Y-71620827D01*
X163209390Y-71620814D01*
X163121789Y-71489711D01*
X163121786Y-71489707D01*
X163010292Y-71378213D01*
X163010288Y-71378210D01*
X162879185Y-71290609D01*
X162879172Y-71290602D01*
X162733501Y-71230264D01*
X162733489Y-71230261D01*
X162578845Y-71199500D01*
X162578842Y-71199500D01*
X162421158Y-71199500D01*
X162421155Y-71199500D01*
X162266510Y-71230261D01*
X162266498Y-71230264D01*
X162120827Y-71290602D01*
X162120814Y-71290609D01*
X161989125Y-71378602D01*
X161922447Y-71399480D01*
X161920234Y-71399500D01*
X151300097Y-71399500D01*
X151233058Y-71379815D01*
X151212416Y-71363181D01*
X149702798Y-69853563D01*
X149669313Y-69792240D01*
X149672547Y-69727566D01*
X149713553Y-69601368D01*
X149733705Y-69474126D01*
X149750500Y-69368097D01*
X149750500Y-69131902D01*
X149713553Y-68898631D01*
X149640566Y-68674003D01*
X149533342Y-68463566D01*
X149394517Y-68272490D01*
X149227510Y-68105483D01*
X149036433Y-67966657D01*
X148825996Y-67859433D01*
X148601368Y-67786446D01*
X148368097Y-67749500D01*
X148368092Y-67749500D01*
X148131908Y-67749500D01*
X148131903Y-67749500D01*
X147898631Y-67786446D01*
X147674003Y-67859433D01*
X147463566Y-67966657D01*
X147354550Y-68045862D01*
X147272490Y-68105483D01*
X147272488Y-68105485D01*
X147272487Y-68105485D01*
X147105485Y-68272487D01*
X147105485Y-68272488D01*
X147105483Y-68272490D01*
X147045862Y-68354550D01*
X146966657Y-68463566D01*
X146906417Y-68581795D01*
X146858442Y-68632591D01*
X146795932Y-68649500D01*
X143204068Y-68649500D01*
X143137029Y-68629815D01*
X143093583Y-68581795D01*
X143033342Y-68463566D01*
X142894517Y-68272490D01*
X142727510Y-68105483D01*
X142536433Y-67966657D01*
X142325996Y-67859433D01*
X142101368Y-67786446D01*
X141868097Y-67749500D01*
X141868092Y-67749500D01*
X141631908Y-67749500D01*
X141631903Y-67749500D01*
X141398631Y-67786446D01*
X141174003Y-67859433D01*
X140963566Y-67966657D01*
X140854550Y-68045862D01*
X140772490Y-68105483D01*
X140772488Y-68105485D01*
X140772487Y-68105485D01*
X140605485Y-68272487D01*
X140605485Y-68272488D01*
X140605483Y-68272490D01*
X140545862Y-68354550D01*
X140466657Y-68463566D01*
X140359433Y-68674003D01*
X140286446Y-68898631D01*
X140249500Y-69131902D01*
X137000500Y-69131902D01*
X137000500Y-63131947D01*
X140250000Y-63131947D01*
X140250000Y-63368052D01*
X140286934Y-63601247D01*
X140359897Y-63825802D01*
X140467087Y-64036174D01*
X140527338Y-64119104D01*
X140527340Y-64119105D01*
X141226212Y-63420233D01*
X141237482Y-63462292D01*
X141309890Y-63587708D01*
X141412292Y-63690110D01*
X141537708Y-63762518D01*
X141579765Y-63773787D01*
X140880893Y-64472658D01*
X140963828Y-64532914D01*
X141174197Y-64640102D01*
X141398752Y-64713065D01*
X141398751Y-64713065D01*
X141631948Y-64750000D01*
X141868052Y-64750000D01*
X142101247Y-64713065D01*
X142325802Y-64640102D01*
X142536163Y-64532918D01*
X142536169Y-64532914D01*
X142619104Y-64472658D01*
X142619105Y-64472658D01*
X141920233Y-63773787D01*
X141962292Y-63762518D01*
X142087708Y-63690110D01*
X142190110Y-63587708D01*
X142262518Y-63462292D01*
X142273787Y-63420234D01*
X142972658Y-64119105D01*
X142972658Y-64119104D01*
X143032914Y-64036169D01*
X143032918Y-64036163D01*
X143140102Y-63825802D01*
X143213065Y-63601247D01*
X143250000Y-63368052D01*
X143250000Y-63131947D01*
X146750000Y-63131947D01*
X146750000Y-63368052D01*
X146786934Y-63601247D01*
X146859897Y-63825802D01*
X146967087Y-64036174D01*
X147027338Y-64119104D01*
X147027340Y-64119105D01*
X147726212Y-63420233D01*
X147737482Y-63462292D01*
X147809890Y-63587708D01*
X147912292Y-63690110D01*
X148037708Y-63762518D01*
X148079765Y-63773787D01*
X147380893Y-64472658D01*
X147463828Y-64532914D01*
X147674197Y-64640102D01*
X147898752Y-64713065D01*
X147898751Y-64713065D01*
X148131948Y-64750000D01*
X148368052Y-64750000D01*
X148601247Y-64713065D01*
X148825802Y-64640102D01*
X149036163Y-64532918D01*
X149036169Y-64532914D01*
X149119104Y-64472658D01*
X149119105Y-64472658D01*
X148420233Y-63773787D01*
X148462292Y-63762518D01*
X148587708Y-63690110D01*
X148690110Y-63587708D01*
X148762518Y-63462292D01*
X148773787Y-63420234D01*
X149472658Y-64119105D01*
X149472658Y-64119104D01*
X149532914Y-64036169D01*
X149532918Y-64036163D01*
X149640102Y-63825802D01*
X149713065Y-63601247D01*
X149750000Y-63368052D01*
X149750000Y-63131947D01*
X149713065Y-62898752D01*
X149640102Y-62674197D01*
X149532914Y-62463828D01*
X149472658Y-62380894D01*
X149472658Y-62380893D01*
X148773787Y-63079765D01*
X148762518Y-63037708D01*
X148690110Y-62912292D01*
X148587708Y-62809890D01*
X148462292Y-62737482D01*
X148420234Y-62726212D01*
X149119105Y-62027340D01*
X149119104Y-62027338D01*
X149036174Y-61967087D01*
X148825802Y-61859897D01*
X148601247Y-61786934D01*
X148601248Y-61786934D01*
X148368052Y-61750000D01*
X148131948Y-61750000D01*
X147898752Y-61786934D01*
X147674197Y-61859897D01*
X147463830Y-61967084D01*
X147380894Y-62027340D01*
X148079766Y-62726212D01*
X148037708Y-62737482D01*
X147912292Y-62809890D01*
X147809890Y-62912292D01*
X147737482Y-63037708D01*
X147726212Y-63079766D01*
X147027340Y-62380894D01*
X146967084Y-62463830D01*
X146859897Y-62674197D01*
X146786934Y-62898752D01*
X146750000Y-63131947D01*
X143250000Y-63131947D01*
X143213065Y-62898752D01*
X143140102Y-62674197D01*
X143032914Y-62463828D01*
X142972658Y-62380894D01*
X142972658Y-62380893D01*
X142273787Y-63079765D01*
X142262518Y-63037708D01*
X142190110Y-62912292D01*
X142087708Y-62809890D01*
X141962292Y-62737482D01*
X141920234Y-62726212D01*
X142619105Y-62027340D01*
X142619104Y-62027339D01*
X142536174Y-61967087D01*
X142325802Y-61859897D01*
X142101247Y-61786934D01*
X142101248Y-61786934D01*
X141868052Y-61750000D01*
X141631948Y-61750000D01*
X141398752Y-61786934D01*
X141174197Y-61859897D01*
X140963830Y-61967084D01*
X140880894Y-62027340D01*
X141579766Y-62726212D01*
X141537708Y-62737482D01*
X141412292Y-62809890D01*
X141309890Y-62912292D01*
X141237482Y-63037708D01*
X141226212Y-63079766D01*
X140527340Y-62380894D01*
X140467084Y-62463830D01*
X140359897Y-62674197D01*
X140286934Y-62898752D01*
X140250000Y-63131947D01*
X137000500Y-63131947D01*
X137000500Y-58631902D01*
X140249500Y-58631902D01*
X140249500Y-58868097D01*
X140286446Y-59101368D01*
X140359433Y-59325996D01*
X140466657Y-59536433D01*
X140605483Y-59727510D01*
X140772490Y-59894517D01*
X140963567Y-60033343D01*
X141062991Y-60084002D01*
X141174003Y-60140566D01*
X141174005Y-60140566D01*
X141174008Y-60140568D01*
X141266292Y-60170553D01*
X141398631Y-60213553D01*
X141631903Y-60250500D01*
X141631908Y-60250500D01*
X141868097Y-60250500D01*
X142101368Y-60213553D01*
X142134468Y-60202798D01*
X142325992Y-60140568D01*
X142536433Y-60033343D01*
X142727510Y-59894517D01*
X142894517Y-59727510D01*
X143033343Y-59536433D01*
X143140568Y-59325992D01*
X143213553Y-59101368D01*
X143213554Y-59101362D01*
X143250500Y-58868097D01*
X143250500Y-58631902D01*
X146749500Y-58631902D01*
X146749500Y-58868097D01*
X146786446Y-59101368D01*
X146859433Y-59325996D01*
X146966657Y-59536433D01*
X147105483Y-59727510D01*
X147272490Y-59894517D01*
X147463567Y-60033343D01*
X147562991Y-60084002D01*
X147674003Y-60140566D01*
X147674005Y-60140566D01*
X147674008Y-60140568D01*
X147766292Y-60170553D01*
X147898631Y-60213553D01*
X148131903Y-60250500D01*
X148131908Y-60250500D01*
X148368097Y-60250500D01*
X148474126Y-60233705D01*
X148601368Y-60213553D01*
X148727566Y-60172547D01*
X148797404Y-60170553D01*
X148853563Y-60202798D01*
X152515139Y-63864374D01*
X152515149Y-63864385D01*
X152519479Y-63868715D01*
X152519480Y-63868716D01*
X152631284Y-63980520D01*
X152631286Y-63980521D01*
X152631290Y-63980524D01*
X152727680Y-64036174D01*
X152768216Y-64059577D01*
X152880019Y-64089534D01*
X152920942Y-64100500D01*
X152920943Y-64100500D01*
X162420234Y-64100500D01*
X162487273Y-64120185D01*
X162489125Y-64121398D01*
X162620814Y-64209390D01*
X162620827Y-64209397D01*
X162758683Y-64266498D01*
X162766503Y-64269737D01*
X162921153Y-64300499D01*
X162921156Y-64300500D01*
X162921158Y-64300500D01*
X163078844Y-64300500D01*
X163078845Y-64300499D01*
X163233497Y-64269737D01*
X163379179Y-64209394D01*
X163510289Y-64121789D01*
X163621789Y-64010289D01*
X163709394Y-63879179D01*
X163769737Y-63733497D01*
X163800500Y-63578842D01*
X163800500Y-63421158D01*
X163800500Y-63421155D01*
X163800499Y-63421153D01*
X163769738Y-63266510D01*
X163769737Y-63266503D01*
X163714003Y-63131947D01*
X163709397Y-63120827D01*
X163709390Y-63120814D01*
X163621789Y-62989711D01*
X163621786Y-62989707D01*
X163510292Y-62878213D01*
X163510288Y-62878210D01*
X163379185Y-62790609D01*
X163379172Y-62790602D01*
X163233501Y-62730264D01*
X163233489Y-62730261D01*
X163078845Y-62699500D01*
X163078842Y-62699500D01*
X162921158Y-62699500D01*
X162921155Y-62699500D01*
X162766510Y-62730261D01*
X162766498Y-62730264D01*
X162620827Y-62790602D01*
X162620814Y-62790609D01*
X162489125Y-62878602D01*
X162422447Y-62899480D01*
X162420234Y-62899500D01*
X153300097Y-62899500D01*
X153233058Y-62879815D01*
X153212416Y-62863181D01*
X149702798Y-59353563D01*
X149669313Y-59292240D01*
X149672547Y-59227566D01*
X149713553Y-59101368D01*
X149733705Y-58974126D01*
X149750500Y-58868097D01*
X149750500Y-58631902D01*
X149713553Y-58398631D01*
X149640566Y-58174003D01*
X149533342Y-57963566D01*
X149394517Y-57772490D01*
X149227510Y-57605483D01*
X149036433Y-57466657D01*
X148825996Y-57359433D01*
X148601368Y-57286446D01*
X148368097Y-57249500D01*
X148368092Y-57249500D01*
X148131908Y-57249500D01*
X148131903Y-57249500D01*
X147898631Y-57286446D01*
X147674003Y-57359433D01*
X147463566Y-57466657D01*
X147354550Y-57545862D01*
X147272490Y-57605483D01*
X147272488Y-57605485D01*
X147272487Y-57605485D01*
X147105485Y-57772487D01*
X147105485Y-57772488D01*
X147105483Y-57772490D01*
X147045862Y-57854550D01*
X146966657Y-57963566D01*
X146859433Y-58174003D01*
X146786446Y-58398631D01*
X146749500Y-58631902D01*
X143250500Y-58631902D01*
X143213553Y-58398631D01*
X143140566Y-58174003D01*
X143033342Y-57963566D01*
X142894517Y-57772490D01*
X142727510Y-57605483D01*
X142536433Y-57466657D01*
X142325996Y-57359433D01*
X142101368Y-57286446D01*
X141868097Y-57249500D01*
X141868092Y-57249500D01*
X141631908Y-57249500D01*
X141631903Y-57249500D01*
X141398631Y-57286446D01*
X141174003Y-57359433D01*
X140963566Y-57466657D01*
X140854550Y-57545862D01*
X140772490Y-57605483D01*
X140772488Y-57605485D01*
X140772487Y-57605485D01*
X140605485Y-57772487D01*
X140605485Y-57772488D01*
X140605483Y-57772490D01*
X140545862Y-57854550D01*
X140466657Y-57963566D01*
X140359433Y-58174003D01*
X140286446Y-58398631D01*
X140249500Y-58631902D01*
X137000500Y-58631902D01*
X137000500Y-55909875D01*
X137000882Y-55900146D01*
X137005686Y-55839108D01*
X137017026Y-55695009D01*
X137020068Y-55675803D01*
X137066965Y-55480464D01*
X137072969Y-55461983D01*
X137149851Y-55276377D01*
X137158677Y-55259055D01*
X137263643Y-55087766D01*
X137275066Y-55072043D01*
X137405535Y-54919284D01*
X137419284Y-54905535D01*
X137572043Y-54775066D01*
X137587766Y-54763643D01*
X137759055Y-54658677D01*
X137776377Y-54649851D01*
X137961983Y-54572969D01*
X137980464Y-54566965D01*
X138175803Y-54520068D01*
X138195009Y-54517026D01*
X138400146Y-54500881D01*
X138409875Y-54500500D01*
X138470892Y-54500500D01*
X158376000Y-54500500D01*
X158443039Y-54520185D01*
G37*
%TD.AperFunction*%
%TA.AperFunction,Conductor*%
G36*
X162227356Y-127638803D02*
G01*
X162260841Y-127700126D01*
X162259926Y-127714831D01*
X162262497Y-127714555D01*
X162271401Y-127797373D01*
X162271403Y-127797380D01*
X162321645Y-127932086D01*
X162321649Y-127932093D01*
X162407809Y-128047187D01*
X162407812Y-128047190D01*
X162522906Y-128133350D01*
X162522913Y-128133354D01*
X162657620Y-128183596D01*
X162657619Y-128183596D01*
X162740444Y-128192501D01*
X162740116Y-128195550D01*
X162757014Y-128194642D01*
X162816196Y-128227642D01*
X163485591Y-128897037D01*
X163422007Y-128914075D01*
X163307993Y-128979901D01*
X163214901Y-129072993D01*
X163149075Y-129187007D01*
X163132037Y-129250591D01*
X162499728Y-128618282D01*
X162499727Y-128618282D01*
X162460380Y-128672440D01*
X162455483Y-128682051D01*
X162407506Y-128732845D01*
X162339684Y-128749638D01*
X162273550Y-128727098D01*
X162234516Y-128682048D01*
X162229626Y-128672452D01*
X162190270Y-128618282D01*
X162190269Y-128618282D01*
X161557962Y-129250590D01*
X161540925Y-129187007D01*
X161475099Y-129072993D01*
X161382007Y-128979901D01*
X161267993Y-128914075D01*
X161204409Y-128897037D01*
X161836716Y-128264728D01*
X161782550Y-128225375D01*
X161772954Y-128220486D01*
X161722157Y-128172512D01*
X161705361Y-128104692D01*
X161727897Y-128038556D01*
X161772954Y-127999514D01*
X161782554Y-127994622D01*
X161836716Y-127955270D01*
X161836717Y-127955270D01*
X161204408Y-127322962D01*
X161267993Y-127305925D01*
X161382007Y-127240099D01*
X161475099Y-127147007D01*
X161540925Y-127032993D01*
X161557962Y-126969409D01*
X162227356Y-127638803D01*
G37*
%TD.AperFunction*%
%TA.AperFunction,Conductor*%
G36*
X158010000Y-114376203D02*
G01*
X158011966Y-114379804D01*
X158009979Y-114407575D01*
X158011306Y-114435392D01*
X158007269Y-114445474D01*
X158006982Y-114449496D01*
X157998189Y-114468158D01*
X157979265Y-114500938D01*
X157979263Y-114500943D01*
X157940423Y-114568214D01*
X157940423Y-114568215D01*
X157899499Y-114720943D01*
X157899499Y-114720945D01*
X157899499Y-114889046D01*
X157899500Y-114889059D01*
X157899500Y-125769902D01*
X157879815Y-125836941D01*
X157863181Y-125857583D01*
X156752180Y-126968584D01*
X156690857Y-127002069D01*
X156621165Y-126997085D01*
X156565232Y-126955213D01*
X156540815Y-126889749D01*
X156540499Y-126880903D01*
X156540499Y-125942129D01*
X156540498Y-125942123D01*
X156537563Y-125914821D01*
X156534091Y-125882517D01*
X156532810Y-125879083D01*
X156483797Y-125747671D01*
X156483793Y-125747664D01*
X156397547Y-125632455D01*
X156397544Y-125632452D01*
X156282335Y-125546206D01*
X156282328Y-125546202D01*
X156147482Y-125495908D01*
X156147483Y-125495908D01*
X156087883Y-125489501D01*
X156087881Y-125489500D01*
X156087873Y-125489500D01*
X156087865Y-125489500D01*
X155944500Y-125489500D01*
X155877461Y-125469815D01*
X155831706Y-125417011D01*
X155820500Y-125365500D01*
X155820500Y-114285718D01*
X155840185Y-114218679D01*
X155888207Y-114175233D01*
X155927815Y-114155052D01*
X155927815Y-114155051D01*
X155927816Y-114155051D01*
X156099792Y-114030104D01*
X156213717Y-113916178D01*
X156275036Y-113882696D01*
X156344728Y-113887680D01*
X156400662Y-113929551D01*
X156417577Y-113960528D01*
X156466646Y-114092088D01*
X156466649Y-114092093D01*
X156552809Y-114207187D01*
X156552812Y-114207190D01*
X156667906Y-114293350D01*
X156667913Y-114293354D01*
X156802620Y-114343596D01*
X156802627Y-114343598D01*
X156862155Y-114349999D01*
X156862172Y-114350000D01*
X157510000Y-114350000D01*
X157510000Y-113444560D01*
X157563147Y-113475245D01*
X157692857Y-113510000D01*
X157827143Y-113510000D01*
X157956853Y-113475245D01*
X158010000Y-113444560D01*
X158010000Y-114376203D01*
G37*
%TD.AperFunction*%
%TA.AperFunction,Conductor*%
G36*
X183410000Y-114350000D02*
G01*
X183585500Y-114350000D01*
X183652539Y-114369685D01*
X183698294Y-114422489D01*
X183709500Y-114474000D01*
X183709500Y-124668330D01*
X183709499Y-124668348D01*
X183709499Y-124834054D01*
X183709498Y-124834054D01*
X183750423Y-124986785D01*
X183774342Y-125028214D01*
X183774344Y-125028216D01*
X183829479Y-125123714D01*
X183829481Y-125123717D01*
X183948349Y-125242585D01*
X183948355Y-125242590D01*
X185016241Y-126310476D01*
X185049726Y-126371799D01*
X185046492Y-126436473D01*
X185032753Y-126478757D01*
X184999500Y-126688713D01*
X184999500Y-126835903D01*
X184979815Y-126902942D01*
X184927011Y-126948697D01*
X184857853Y-126958641D01*
X184794297Y-126929616D01*
X184787819Y-126923584D01*
X182646819Y-124782584D01*
X182613334Y-124721261D01*
X182610500Y-124694903D01*
X182610500Y-114474000D01*
X182630185Y-114406961D01*
X182682989Y-114361206D01*
X182734500Y-114350000D01*
X182910000Y-114350000D01*
X182910000Y-113444560D01*
X182963147Y-113475245D01*
X183092857Y-113510000D01*
X183227143Y-113510000D01*
X183356853Y-113475245D01*
X183410000Y-113444560D01*
X183410000Y-114350000D01*
G37*
%TD.AperFunction*%
%TA.AperFunction,Conductor*%
G36*
X145310000Y-114389402D02*
G01*
X145290315Y-114456441D01*
X145273681Y-114477083D01*
X141347181Y-118403583D01*
X141285858Y-118437068D01*
X141216166Y-118432084D01*
X141160233Y-118390212D01*
X141135816Y-118324748D01*
X141135500Y-118315902D01*
X141135500Y-115285096D01*
X141155185Y-115218057D01*
X141171815Y-115197419D01*
X142035478Y-114333755D01*
X142096799Y-114300272D01*
X142161473Y-114303506D01*
X142203757Y-114317246D01*
X142413713Y-114350500D01*
X142413714Y-114350500D01*
X142626286Y-114350500D01*
X142626287Y-114350500D01*
X142836243Y-114317246D01*
X143038412Y-114251557D01*
X143227816Y-114155051D01*
X143399792Y-114030104D01*
X143513717Y-113916178D01*
X143575036Y-113882696D01*
X143644728Y-113887680D01*
X143700662Y-113929551D01*
X143717577Y-113960528D01*
X143766646Y-114092088D01*
X143766649Y-114092093D01*
X143852809Y-114207187D01*
X143852812Y-114207190D01*
X143967906Y-114293350D01*
X143967913Y-114293354D01*
X144102620Y-114343596D01*
X144102627Y-114343598D01*
X144162155Y-114349999D01*
X144162172Y-114350000D01*
X144810000Y-114350000D01*
X144810000Y-113444560D01*
X144863147Y-113475245D01*
X144992857Y-113510000D01*
X145127143Y-113510000D01*
X145256853Y-113475245D01*
X145310000Y-113444560D01*
X145310000Y-114389402D01*
G37*
%TD.AperFunction*%
%TA.AperFunction,Conductor*%
G36*
X158010000Y-96570000D02*
G01*
X158657828Y-96570000D01*
X158657844Y-96569999D01*
X158717372Y-96563598D01*
X158717379Y-96563596D01*
X158852086Y-96513354D01*
X158852093Y-96513350D01*
X158967187Y-96427190D01*
X158967190Y-96427187D01*
X159053350Y-96312093D01*
X159053354Y-96312086D01*
X159102422Y-96180529D01*
X159144293Y-96124595D01*
X159209757Y-96100178D01*
X159278030Y-96115030D01*
X159306285Y-96136181D01*
X159420213Y-96250109D01*
X159592179Y-96375048D01*
X159592181Y-96375049D01*
X159592184Y-96375051D01*
X159781588Y-96471557D01*
X159983757Y-96537246D01*
X160193713Y-96570500D01*
X160193714Y-96570500D01*
X160406286Y-96570500D01*
X160406287Y-96570500D01*
X160616243Y-96537246D01*
X160658523Y-96523507D01*
X160728362Y-96521511D01*
X160784522Y-96553757D01*
X165863181Y-101632416D01*
X165896666Y-101693739D01*
X165899500Y-101720097D01*
X165899500Y-108420234D01*
X165879815Y-108487273D01*
X165878602Y-108489125D01*
X165790609Y-108620814D01*
X165790602Y-108620827D01*
X165730264Y-108766498D01*
X165730261Y-108766510D01*
X165699500Y-108921153D01*
X165699500Y-109078846D01*
X165730261Y-109233489D01*
X165730264Y-109233501D01*
X165790602Y-109379172D01*
X165790609Y-109379185D01*
X165878210Y-109510288D01*
X165878213Y-109510292D01*
X165989707Y-109621786D01*
X165989711Y-109621789D01*
X166120814Y-109709390D01*
X166120827Y-109709397D01*
X166266498Y-109769735D01*
X166266503Y-109769737D01*
X166421153Y-109800499D01*
X166421156Y-109800500D01*
X166421158Y-109800500D01*
X166578844Y-109800500D01*
X166578845Y-109800499D01*
X166733497Y-109769737D01*
X166879179Y-109709394D01*
X167010289Y-109621789D01*
X167121789Y-109510289D01*
X167129145Y-109499279D01*
X167146898Y-109472712D01*
X167200510Y-109427906D01*
X167269835Y-109419199D01*
X167332862Y-109449353D01*
X167353102Y-109472712D01*
X167378207Y-109510284D01*
X167378213Y-109510292D01*
X167489707Y-109621786D01*
X167489711Y-109621789D01*
X167620814Y-109709390D01*
X167620827Y-109709397D01*
X167766498Y-109769735D01*
X167766503Y-109769737D01*
X167921153Y-109800499D01*
X167921156Y-109800500D01*
X167921158Y-109800500D01*
X168078844Y-109800500D01*
X168078845Y-109800499D01*
X168233497Y-109769737D01*
X168379179Y-109709394D01*
X168510289Y-109621789D01*
X168621789Y-109510289D01*
X168629145Y-109499279D01*
X168646898Y-109472712D01*
X168700510Y-109427906D01*
X168769835Y-109419199D01*
X168832862Y-109449353D01*
X168853102Y-109472712D01*
X168878207Y-109510284D01*
X168878213Y-109510292D01*
X168989707Y-109621786D01*
X168989711Y-109621789D01*
X169120814Y-109709390D01*
X169120827Y-109709397D01*
X169266498Y-109769735D01*
X169266503Y-109769737D01*
X169421153Y-109800499D01*
X169421156Y-109800500D01*
X169421158Y-109800500D01*
X169578844Y-109800500D01*
X169578845Y-109800499D01*
X169733497Y-109769737D01*
X169879179Y-109709394D01*
X170010289Y-109621789D01*
X170121789Y-109510289D01*
X170209394Y-109379179D01*
X170269737Y-109233497D01*
X170300500Y-109078842D01*
X170300500Y-108921158D01*
X170300500Y-108921155D01*
X170300499Y-108921153D01*
X170269738Y-108766510D01*
X170269737Y-108766503D01*
X170250000Y-108718853D01*
X170209397Y-108620827D01*
X170209390Y-108620814D01*
X170121398Y-108489125D01*
X170100520Y-108422447D01*
X170100500Y-108420234D01*
X170100500Y-99429059D01*
X170100501Y-99429046D01*
X170100501Y-99260945D01*
X170100501Y-99260943D01*
X170059577Y-99108215D01*
X170030639Y-99058095D01*
X169980520Y-98971284D01*
X169868716Y-98859480D01*
X169868715Y-98859479D01*
X169864385Y-98855149D01*
X169864374Y-98855139D01*
X167791416Y-96782181D01*
X167757931Y-96720858D01*
X167762915Y-96651166D01*
X167804787Y-96595233D01*
X167870251Y-96570816D01*
X167879097Y-96570500D01*
X168026286Y-96570500D01*
X168026287Y-96570500D01*
X168236243Y-96537246D01*
X168438412Y-96471557D01*
X168627816Y-96375051D01*
X168714478Y-96312088D01*
X168799784Y-96250110D01*
X168799784Y-96250109D01*
X168799792Y-96250104D01*
X168913329Y-96136566D01*
X168974648Y-96103084D01*
X169044340Y-96108068D01*
X169100274Y-96149939D01*
X169117189Y-96180917D01*
X169166202Y-96312328D01*
X169166206Y-96312335D01*
X169252452Y-96427544D01*
X169252455Y-96427547D01*
X169367664Y-96513793D01*
X169367671Y-96513797D01*
X169502517Y-96564091D01*
X169502516Y-96564091D01*
X169509444Y-96564835D01*
X169562127Y-96570500D01*
X171357872Y-96570499D01*
X171417483Y-96564091D01*
X171552331Y-96513796D01*
X171667546Y-96427546D01*
X171753796Y-96312331D01*
X171802810Y-96180916D01*
X171844681Y-96124984D01*
X171910145Y-96100566D01*
X171978418Y-96115417D01*
X172006673Y-96136569D01*
X172120213Y-96250109D01*
X172292179Y-96375048D01*
X172292181Y-96375049D01*
X172292184Y-96375051D01*
X172481588Y-96471557D01*
X172683757Y-96537246D01*
X172893713Y-96570500D01*
X172893714Y-96570500D01*
X173106286Y-96570500D01*
X173106287Y-96570500D01*
X173316243Y-96537246D01*
X173358523Y-96523507D01*
X173428362Y-96521511D01*
X173484522Y-96553757D01*
X174795139Y-97864374D01*
X174795149Y-97864385D01*
X174799479Y-97868715D01*
X174799480Y-97868716D01*
X174911284Y-97980520D01*
X174998095Y-98030639D01*
X174998097Y-98030641D01*
X175036151Y-98052611D01*
X175048215Y-98059577D01*
X175200943Y-98100501D01*
X175200946Y-98100501D01*
X175366653Y-98100501D01*
X175366669Y-98100500D01*
X182150903Y-98100500D01*
X182217942Y-98120185D01*
X182263697Y-98172989D01*
X182273641Y-98242147D01*
X182244616Y-98305703D01*
X182238586Y-98312178D01*
X181579480Y-98971284D01*
X181131286Y-99419478D01*
X181019481Y-99531282D01*
X181019479Y-99531284D01*
X181003044Y-99559751D01*
X180996097Y-99571785D01*
X180940423Y-99668215D01*
X180899499Y-99820943D01*
X180899499Y-99820945D01*
X180899499Y-99989046D01*
X180899500Y-99989059D01*
X180899500Y-111531748D01*
X180879815Y-111598787D01*
X180827011Y-111644542D01*
X180757853Y-111654486D01*
X180756103Y-111654222D01*
X180726287Y-111649500D01*
X180513713Y-111649500D01*
X180465042Y-111657208D01*
X180303760Y-111682753D01*
X180101585Y-111748444D01*
X179912179Y-111844951D01*
X179740213Y-111969890D01*
X179589890Y-112120213D01*
X179464949Y-112292182D01*
X179460484Y-112300946D01*
X179412509Y-112351742D01*
X179344688Y-112368536D01*
X179278553Y-112345998D01*
X179239516Y-112300946D01*
X179235050Y-112292182D01*
X179110109Y-112120213D01*
X178959786Y-111969890D01*
X178787820Y-111844951D01*
X178598414Y-111748444D01*
X178598413Y-111748443D01*
X178598412Y-111748443D01*
X178396243Y-111682754D01*
X178396241Y-111682753D01*
X178396240Y-111682753D01*
X178234957Y-111657208D01*
X178186287Y-111649500D01*
X177973713Y-111649500D01*
X177925042Y-111657208D01*
X177763760Y-111682753D01*
X177561585Y-111748444D01*
X177372179Y-111844951D01*
X177200213Y-111969890D01*
X177049890Y-112120213D01*
X176924949Y-112292182D01*
X176920484Y-112300946D01*
X176872509Y-112351742D01*
X176804688Y-112368536D01*
X176738553Y-112345998D01*
X176699516Y-112300946D01*
X176695050Y-112292182D01*
X176570109Y-112120213D01*
X176419786Y-111969890D01*
X176247820Y-111844951D01*
X176058414Y-111748444D01*
X176058413Y-111748443D01*
X176058412Y-111748443D01*
X175856243Y-111682754D01*
X175856241Y-111682753D01*
X175856240Y-111682753D01*
X175694957Y-111657208D01*
X175646287Y-111649500D01*
X175433713Y-111649500D01*
X175385042Y-111657208D01*
X175223760Y-111682753D01*
X175021585Y-111748444D01*
X174832179Y-111844951D01*
X174660213Y-111969890D01*
X174509890Y-112120213D01*
X174384949Y-112292182D01*
X174380484Y-112300946D01*
X174332509Y-112351742D01*
X174264688Y-112368536D01*
X174198553Y-112345998D01*
X174159516Y-112300946D01*
X174155050Y-112292182D01*
X174030109Y-112120213D01*
X173879786Y-111969890D01*
X173707820Y-111844951D01*
X173518414Y-111748444D01*
X173518413Y-111748443D01*
X173518412Y-111748443D01*
X173316243Y-111682754D01*
X173316241Y-111682753D01*
X173316240Y-111682753D01*
X173154957Y-111657208D01*
X173106287Y-111649500D01*
X172893713Y-111649500D01*
X172845042Y-111657208D01*
X172683760Y-111682753D01*
X172481585Y-111748444D01*
X172292179Y-111844951D01*
X172120215Y-111969889D01*
X172006673Y-112083431D01*
X171945350Y-112116915D01*
X171875658Y-112111931D01*
X171819725Y-112070059D01*
X171802810Y-112039082D01*
X171753797Y-111907671D01*
X171753793Y-111907664D01*
X171667547Y-111792455D01*
X171667544Y-111792452D01*
X171552335Y-111706206D01*
X171552328Y-111706202D01*
X171417482Y-111655908D01*
X171417483Y-111655908D01*
X171357883Y-111649501D01*
X171357881Y-111649500D01*
X171357873Y-111649500D01*
X171357864Y-111649500D01*
X169562129Y-111649500D01*
X169562123Y-111649501D01*
X169502516Y-111655908D01*
X169367671Y-111706202D01*
X169367664Y-111706206D01*
X169252455Y-111792452D01*
X169252452Y-111792455D01*
X169166206Y-111907664D01*
X169166203Y-111907669D01*
X169117189Y-112039083D01*
X169075317Y-112095016D01*
X169009853Y-112119433D01*
X168941580Y-112104581D01*
X168913326Y-112083430D01*
X168799786Y-111969890D01*
X168627820Y-111844951D01*
X168438414Y-111748444D01*
X168438413Y-111748443D01*
X168438412Y-111748443D01*
X168236243Y-111682754D01*
X168236241Y-111682753D01*
X168236240Y-111682753D01*
X168074957Y-111657208D01*
X168026287Y-111649500D01*
X167813713Y-111649500D01*
X167765042Y-111657208D01*
X167603760Y-111682753D01*
X167401585Y-111748444D01*
X167212179Y-111844951D01*
X167040213Y-111969890D01*
X166889890Y-112120213D01*
X166764949Y-112292182D01*
X166760484Y-112300946D01*
X166712509Y-112351742D01*
X166644688Y-112368536D01*
X166578553Y-112345998D01*
X166539516Y-112300946D01*
X166535050Y-112292182D01*
X166410109Y-112120213D01*
X166259786Y-111969890D01*
X166087820Y-111844951D01*
X165898414Y-111748444D01*
X165898413Y-111748443D01*
X165898412Y-111748443D01*
X165696243Y-111682754D01*
X165696241Y-111682753D01*
X165696240Y-111682753D01*
X165534957Y-111657208D01*
X165486287Y-111649500D01*
X165273713Y-111649500D01*
X165225042Y-111657208D01*
X165063760Y-111682753D01*
X164861585Y-111748444D01*
X164672179Y-111844951D01*
X164500213Y-111969890D01*
X164349890Y-112120213D01*
X164224949Y-112292182D01*
X164220484Y-112300946D01*
X164172509Y-112351742D01*
X164104688Y-112368536D01*
X164038553Y-112345998D01*
X163999516Y-112300946D01*
X163995050Y-112292182D01*
X163870109Y-112120213D01*
X163719786Y-111969890D01*
X163547820Y-111844951D01*
X163358414Y-111748444D01*
X163358413Y-111748443D01*
X163358412Y-111748443D01*
X163156243Y-111682754D01*
X163156241Y-111682753D01*
X163156240Y-111682753D01*
X162994957Y-111657208D01*
X162946287Y-111649500D01*
X162733713Y-111649500D01*
X162685042Y-111657208D01*
X162523760Y-111682753D01*
X162321585Y-111748444D01*
X162132179Y-111844951D01*
X161960213Y-111969890D01*
X161809890Y-112120213D01*
X161684949Y-112292182D01*
X161680484Y-112300946D01*
X161632509Y-112351742D01*
X161564688Y-112368536D01*
X161498553Y-112345998D01*
X161459516Y-112300946D01*
X161455050Y-112292182D01*
X161330109Y-112120213D01*
X161179786Y-111969890D01*
X161007820Y-111844951D01*
X160818414Y-111748444D01*
X160818413Y-111748443D01*
X160818412Y-111748443D01*
X160616243Y-111682754D01*
X160616241Y-111682753D01*
X160616240Y-111682753D01*
X160454957Y-111657208D01*
X160406287Y-111649500D01*
X160193713Y-111649500D01*
X160145042Y-111657208D01*
X159983760Y-111682753D01*
X159781585Y-111748444D01*
X159592179Y-111844951D01*
X159420215Y-111969889D01*
X159306285Y-112083819D01*
X159244962Y-112117303D01*
X159175270Y-112112319D01*
X159119337Y-112070447D01*
X159102422Y-112039470D01*
X159053354Y-111907913D01*
X159053350Y-111907906D01*
X158967190Y-111792812D01*
X158967187Y-111792809D01*
X158852093Y-111706649D01*
X158852086Y-111706645D01*
X158717379Y-111656403D01*
X158717372Y-111656401D01*
X158657844Y-111650000D01*
X158010000Y-111650000D01*
X158010000Y-112555439D01*
X157956853Y-112524755D01*
X157827143Y-112490000D01*
X157692857Y-112490000D01*
X157563147Y-112524755D01*
X157510000Y-112555439D01*
X157510000Y-111650000D01*
X156862155Y-111650000D01*
X156802627Y-111656401D01*
X156802620Y-111656403D01*
X156667913Y-111706645D01*
X156667906Y-111706649D01*
X156552812Y-111792809D01*
X156552809Y-111792812D01*
X156466649Y-111907906D01*
X156466646Y-111907912D01*
X156417577Y-112039471D01*
X156375705Y-112095404D01*
X156310241Y-112119821D01*
X156241968Y-112104969D01*
X156213714Y-112083818D01*
X156099786Y-111969890D01*
X155927820Y-111844951D01*
X155738414Y-111748444D01*
X155738413Y-111748443D01*
X155738412Y-111748443D01*
X155536243Y-111682754D01*
X155536241Y-111682753D01*
X155536240Y-111682753D01*
X155374957Y-111657208D01*
X155326287Y-111649500D01*
X155113713Y-111649500D01*
X155065042Y-111657208D01*
X154903760Y-111682753D01*
X154701585Y-111748444D01*
X154512179Y-111844951D01*
X154340213Y-111969890D01*
X154189890Y-112120213D01*
X154064949Y-112292182D01*
X154060484Y-112300946D01*
X154012509Y-112351742D01*
X153944688Y-112368536D01*
X153878553Y-112345998D01*
X153839516Y-112300946D01*
X153835050Y-112292182D01*
X153710109Y-112120213D01*
X153559786Y-111969890D01*
X153387820Y-111844951D01*
X153198414Y-111748444D01*
X153198413Y-111748443D01*
X153198412Y-111748443D01*
X152996243Y-111682754D01*
X152996241Y-111682753D01*
X152996240Y-111682753D01*
X152834957Y-111657208D01*
X152786287Y-111649500D01*
X152573713Y-111649500D01*
X152525042Y-111657208D01*
X152363760Y-111682753D01*
X152161585Y-111748444D01*
X151972179Y-111844951D01*
X151800213Y-111969890D01*
X151649890Y-112120213D01*
X151524949Y-112292182D01*
X151520484Y-112300946D01*
X151472509Y-112351742D01*
X151404688Y-112368536D01*
X151338553Y-112345998D01*
X151299516Y-112300946D01*
X151295050Y-112292182D01*
X151170109Y-112120213D01*
X151019786Y-111969890D01*
X150847820Y-111844951D01*
X150658414Y-111748444D01*
X150658413Y-111748443D01*
X150658412Y-111748443D01*
X150456243Y-111682754D01*
X150456241Y-111682753D01*
X150456240Y-111682753D01*
X150294957Y-111657208D01*
X150246287Y-111649500D01*
X150033713Y-111649500D01*
X149985042Y-111657208D01*
X149823760Y-111682753D01*
X149621585Y-111748444D01*
X149432179Y-111844951D01*
X149260213Y-111969890D01*
X149109890Y-112120213D01*
X148984949Y-112292182D01*
X148980484Y-112300946D01*
X148932509Y-112351742D01*
X148864688Y-112368536D01*
X148798553Y-112345998D01*
X148759516Y-112300946D01*
X148755050Y-112292182D01*
X148630109Y-112120213D01*
X148479786Y-111969890D01*
X148307820Y-111844951D01*
X148118414Y-111748444D01*
X148118413Y-111748443D01*
X148118412Y-111748443D01*
X147916243Y-111682754D01*
X147916241Y-111682753D01*
X147916240Y-111682753D01*
X147754957Y-111657208D01*
X147706287Y-111649500D01*
X147493713Y-111649500D01*
X147445042Y-111657208D01*
X147283760Y-111682753D01*
X147081585Y-111748444D01*
X146892179Y-111844951D01*
X146720215Y-111969889D01*
X146606285Y-112083819D01*
X146544962Y-112117303D01*
X146475270Y-112112319D01*
X146419337Y-112070447D01*
X146402422Y-112039470D01*
X146353354Y-111907913D01*
X146353350Y-111907906D01*
X146267190Y-111792812D01*
X146267187Y-111792809D01*
X146152093Y-111706649D01*
X146152086Y-111706645D01*
X146017379Y-111656403D01*
X146017372Y-111656401D01*
X145957844Y-111650000D01*
X145310000Y-111650000D01*
X145310000Y-112555439D01*
X145256853Y-112524755D01*
X145127143Y-112490000D01*
X144992857Y-112490000D01*
X144863147Y-112524755D01*
X144810000Y-112555439D01*
X144810000Y-111650000D01*
X144162155Y-111650000D01*
X144102627Y-111656401D01*
X144102620Y-111656403D01*
X143967913Y-111706645D01*
X143967906Y-111706649D01*
X143852812Y-111792809D01*
X143852809Y-111792812D01*
X143766649Y-111907906D01*
X143766646Y-111907912D01*
X143717577Y-112039471D01*
X143675705Y-112095404D01*
X143610241Y-112119821D01*
X143541968Y-112104969D01*
X143513714Y-112083818D01*
X143399786Y-111969890D01*
X143227820Y-111844951D01*
X143038414Y-111748444D01*
X143038413Y-111748443D01*
X143038412Y-111748443D01*
X142836243Y-111682754D01*
X142836241Y-111682753D01*
X142836240Y-111682753D01*
X142674957Y-111657208D01*
X142626287Y-111649500D01*
X142413713Y-111649500D01*
X142365042Y-111657208D01*
X142203760Y-111682753D01*
X142001585Y-111748444D01*
X141812179Y-111844951D01*
X141640213Y-111969890D01*
X141489890Y-112120213D01*
X141364949Y-112292182D01*
X141360484Y-112300946D01*
X141312509Y-112351742D01*
X141244688Y-112368536D01*
X141178553Y-112345998D01*
X141139516Y-112300946D01*
X141135050Y-112292182D01*
X141010109Y-112120213D01*
X140859786Y-111969890D01*
X140687820Y-111844951D01*
X140498414Y-111748444D01*
X140498413Y-111748443D01*
X140498412Y-111748443D01*
X140296243Y-111682754D01*
X140296241Y-111682753D01*
X140296240Y-111682753D01*
X140134957Y-111657208D01*
X140086287Y-111649500D01*
X139873713Y-111649500D01*
X139825042Y-111657208D01*
X139663760Y-111682753D01*
X139461585Y-111748444D01*
X139272179Y-111844951D01*
X139100213Y-111969890D01*
X138949890Y-112120213D01*
X138824951Y-112292179D01*
X138728444Y-112481585D01*
X138662753Y-112683760D01*
X138646973Y-112783393D01*
X138617044Y-112846528D01*
X138557732Y-112883459D01*
X138487870Y-112882461D01*
X138429637Y-112843851D01*
X138401523Y-112779888D01*
X138400500Y-112763995D01*
X138400500Y-101463713D01*
X138859500Y-101463713D01*
X138859500Y-101676286D01*
X138891480Y-101878204D01*
X138892754Y-101886243D01*
X138922511Y-101977826D01*
X138958444Y-102088414D01*
X139054951Y-102277820D01*
X139179890Y-102449786D01*
X139293818Y-102563714D01*
X139327303Y-102625037D01*
X139322319Y-102694729D01*
X139280447Y-102750662D01*
X139249471Y-102767577D01*
X139117912Y-102816646D01*
X139117906Y-102816649D01*
X139002812Y-102902809D01*
X139002809Y-102902812D01*
X138916649Y-103017906D01*
X138916645Y-103017913D01*
X138866403Y-103152620D01*
X138866401Y-103152627D01*
X138860000Y-103212155D01*
X138860000Y-103860000D01*
X139765440Y-103860000D01*
X139734755Y-103913147D01*
X139700000Y-104042857D01*
X139700000Y-104177143D01*
X139734755Y-104306853D01*
X139765440Y-104360000D01*
X138860000Y-104360000D01*
X138860000Y-105007844D01*
X138866401Y-105067372D01*
X138866403Y-105067379D01*
X138916645Y-105202086D01*
X138916649Y-105202093D01*
X139002809Y-105317187D01*
X139002812Y-105317190D01*
X139117906Y-105403350D01*
X139117913Y-105403354D01*
X139249470Y-105452422D01*
X139305404Y-105494293D01*
X139329821Y-105559758D01*
X139314969Y-105628031D01*
X139293819Y-105656285D01*
X139179889Y-105770215D01*
X139054951Y-105942179D01*
X138958444Y-106131585D01*
X138892753Y-106333760D01*
X138859500Y-106543713D01*
X138859500Y-106756286D01*
X138889424Y-106945222D01*
X138892754Y-106966243D01*
X138908604Y-107015025D01*
X138958444Y-107168414D01*
X139054951Y-107357820D01*
X139179890Y-107529786D01*
X139330213Y-107680109D01*
X139502179Y-107805048D01*
X139502181Y-107805049D01*
X139502184Y-107805051D01*
X139691588Y-107901557D01*
X139893757Y-107967246D01*
X140103713Y-108000500D01*
X140103714Y-108000500D01*
X140316286Y-108000500D01*
X140316287Y-108000500D01*
X140526243Y-107967246D01*
X140728412Y-107901557D01*
X140917816Y-107805051D01*
X140944726Y-107785500D01*
X141089786Y-107680109D01*
X141089788Y-107680106D01*
X141089792Y-107680104D01*
X141240104Y-107529792D01*
X141240106Y-107529788D01*
X141240109Y-107529786D01*
X141349086Y-107379789D01*
X141365051Y-107357816D01*
X141461557Y-107168412D01*
X141527246Y-106966243D01*
X141560500Y-106756287D01*
X141560500Y-106543713D01*
X141527246Y-106333757D01*
X141461557Y-106131588D01*
X141365051Y-105942184D01*
X141365049Y-105942181D01*
X141365048Y-105942179D01*
X141240109Y-105770213D01*
X141126181Y-105656285D01*
X141092696Y-105594962D01*
X141097680Y-105525270D01*
X141139552Y-105469337D01*
X141170529Y-105452422D01*
X141302086Y-105403354D01*
X141302093Y-105403350D01*
X141417187Y-105317190D01*
X141417190Y-105317187D01*
X141503350Y-105202093D01*
X141503354Y-105202086D01*
X141553596Y-105067379D01*
X141553598Y-105067372D01*
X141559999Y-105007844D01*
X141560000Y-105007827D01*
X141560000Y-104360000D01*
X140654560Y-104360000D01*
X140685245Y-104306853D01*
X140720000Y-104177143D01*
X140720000Y-104042857D01*
X140685245Y-103913147D01*
X140654560Y-103860000D01*
X141560000Y-103860000D01*
X141560000Y-103212172D01*
X141559999Y-103212155D01*
X141553598Y-103152627D01*
X141553596Y-103152620D01*
X141503354Y-103017913D01*
X141503350Y-103017906D01*
X141417190Y-102902812D01*
X141417187Y-102902809D01*
X141302093Y-102816649D01*
X141302088Y-102816646D01*
X141170528Y-102767577D01*
X141114595Y-102725705D01*
X141090178Y-102660241D01*
X141105030Y-102591968D01*
X141126175Y-102563720D01*
X141240104Y-102449792D01*
X141365051Y-102277816D01*
X141461557Y-102088412D01*
X141527246Y-101886243D01*
X141560500Y-101676287D01*
X141560500Y-101463713D01*
X141527246Y-101253757D01*
X141461557Y-101051588D01*
X141365051Y-100862184D01*
X141365049Y-100862181D01*
X141365048Y-100862179D01*
X141240109Y-100690213D01*
X141089786Y-100539890D01*
X140917820Y-100414951D01*
X140728414Y-100318444D01*
X140728413Y-100318443D01*
X140728412Y-100318443D01*
X140526243Y-100252754D01*
X140526241Y-100252753D01*
X140526240Y-100252753D01*
X140364957Y-100227208D01*
X140316287Y-100219500D01*
X140103713Y-100219500D01*
X140055042Y-100227208D01*
X139893760Y-100252753D01*
X139691585Y-100318444D01*
X139502179Y-100414951D01*
X139330213Y-100539890D01*
X139179890Y-100690213D01*
X139054951Y-100862179D01*
X138958444Y-101051585D01*
X138892753Y-101253760D01*
X138859500Y-101463713D01*
X138400500Y-101463713D01*
X138400500Y-97700096D01*
X138420185Y-97633057D01*
X138436814Y-97612419D01*
X139495478Y-96553755D01*
X139556799Y-96520272D01*
X139621473Y-96523506D01*
X139663757Y-96537246D01*
X139873713Y-96570500D01*
X139873714Y-96570500D01*
X140086286Y-96570500D01*
X140086287Y-96570500D01*
X140296243Y-96537246D01*
X140498412Y-96471557D01*
X140687816Y-96375051D01*
X140774138Y-96312335D01*
X140859786Y-96250109D01*
X140859788Y-96250106D01*
X140859792Y-96250104D01*
X141010104Y-96099792D01*
X141010106Y-96099788D01*
X141010109Y-96099786D01*
X141135048Y-95927820D01*
X141135047Y-95927820D01*
X141135051Y-95927816D01*
X141139514Y-95919054D01*
X141187488Y-95868259D01*
X141255308Y-95851463D01*
X141321444Y-95873999D01*
X141360486Y-95919056D01*
X141364951Y-95927820D01*
X141489890Y-96099786D01*
X141640213Y-96250109D01*
X141812179Y-96375048D01*
X141812181Y-96375049D01*
X141812184Y-96375051D01*
X142001588Y-96471557D01*
X142203757Y-96537246D01*
X142413713Y-96570500D01*
X142413714Y-96570500D01*
X142626286Y-96570500D01*
X142626287Y-96570500D01*
X142836243Y-96537246D01*
X143038412Y-96471557D01*
X143227816Y-96375051D01*
X143314478Y-96312088D01*
X143399784Y-96250110D01*
X143399784Y-96250109D01*
X143399792Y-96250104D01*
X143513717Y-96136178D01*
X143575036Y-96102696D01*
X143644728Y-96107680D01*
X143700662Y-96149551D01*
X143717577Y-96180528D01*
X143766646Y-96312088D01*
X143766649Y-96312093D01*
X143852809Y-96427187D01*
X143852812Y-96427190D01*
X143967906Y-96513350D01*
X143967913Y-96513354D01*
X144102620Y-96563596D01*
X144102627Y-96563598D01*
X144162155Y-96569999D01*
X144162172Y-96570000D01*
X144810000Y-96570000D01*
X144810000Y-95664560D01*
X144863147Y-95695245D01*
X144992857Y-95730000D01*
X145127143Y-95730000D01*
X145256853Y-95695245D01*
X145310000Y-95664560D01*
X145310000Y-96570000D01*
X145957828Y-96570000D01*
X145957844Y-96569999D01*
X146017372Y-96563598D01*
X146017379Y-96563596D01*
X146152086Y-96513354D01*
X146152093Y-96513350D01*
X146267187Y-96427190D01*
X146267190Y-96427187D01*
X146353350Y-96312093D01*
X146353354Y-96312086D01*
X146402422Y-96180529D01*
X146444293Y-96124595D01*
X146509757Y-96100178D01*
X146578030Y-96115030D01*
X146606285Y-96136181D01*
X146720213Y-96250109D01*
X146892179Y-96375048D01*
X146892181Y-96375049D01*
X146892184Y-96375051D01*
X147081588Y-96471557D01*
X147283757Y-96537246D01*
X147493713Y-96570500D01*
X147493714Y-96570500D01*
X147706286Y-96570500D01*
X147706287Y-96570500D01*
X147916243Y-96537246D01*
X148118412Y-96471557D01*
X148307816Y-96375051D01*
X148394138Y-96312335D01*
X148479786Y-96250109D01*
X148479788Y-96250106D01*
X148479792Y-96250104D01*
X148630104Y-96099792D01*
X148630106Y-96099788D01*
X148630109Y-96099786D01*
X148755048Y-95927820D01*
X148755047Y-95927820D01*
X148755051Y-95927816D01*
X148759514Y-95919054D01*
X148807488Y-95868259D01*
X148875308Y-95851463D01*
X148941444Y-95873999D01*
X148980486Y-95919056D01*
X148984951Y-95927820D01*
X149109890Y-96099786D01*
X149260213Y-96250109D01*
X149432179Y-96375048D01*
X149432181Y-96375049D01*
X149432184Y-96375051D01*
X149621588Y-96471557D01*
X149823757Y-96537246D01*
X150033713Y-96570500D01*
X150033714Y-96570500D01*
X150246286Y-96570500D01*
X150246287Y-96570500D01*
X150456243Y-96537246D01*
X150658412Y-96471557D01*
X150847816Y-96375051D01*
X150934138Y-96312335D01*
X151019786Y-96250109D01*
X151019788Y-96250106D01*
X151019792Y-96250104D01*
X151170104Y-96099792D01*
X151170106Y-96099788D01*
X151170109Y-96099786D01*
X151295048Y-95927820D01*
X151295047Y-95927820D01*
X151295051Y-95927816D01*
X151299514Y-95919054D01*
X151347488Y-95868259D01*
X151415308Y-95851463D01*
X151481444Y-95873999D01*
X151520486Y-95919056D01*
X151524951Y-95927820D01*
X151649890Y-96099786D01*
X151800213Y-96250109D01*
X151972179Y-96375048D01*
X151972181Y-96375049D01*
X151972184Y-96375051D01*
X152161588Y-96471557D01*
X152363757Y-96537246D01*
X152573713Y-96570500D01*
X152573714Y-96570500D01*
X152786286Y-96570500D01*
X152786287Y-96570500D01*
X152996243Y-96537246D01*
X153198412Y-96471557D01*
X153387816Y-96375051D01*
X153474138Y-96312335D01*
X153559786Y-96250109D01*
X153559788Y-96250106D01*
X153559792Y-96250104D01*
X153710104Y-96099792D01*
X153710106Y-96099788D01*
X153710109Y-96099786D01*
X153835048Y-95927820D01*
X153835047Y-95927820D01*
X153835051Y-95927816D01*
X153839514Y-95919054D01*
X153887488Y-95868259D01*
X153955308Y-95851463D01*
X154021444Y-95873999D01*
X154060486Y-95919056D01*
X154064951Y-95927820D01*
X154189890Y-96099786D01*
X154340213Y-96250109D01*
X154512179Y-96375048D01*
X154512181Y-96375049D01*
X154512184Y-96375051D01*
X154701588Y-96471557D01*
X154903757Y-96537246D01*
X155113713Y-96570500D01*
X155113714Y-96570500D01*
X155326286Y-96570500D01*
X155326287Y-96570500D01*
X155536243Y-96537246D01*
X155578523Y-96523507D01*
X155648362Y-96521511D01*
X155704522Y-96553757D01*
X163863181Y-104712416D01*
X163896666Y-104773739D01*
X163899500Y-104800097D01*
X163899500Y-108420234D01*
X163879815Y-108487273D01*
X163878602Y-108489125D01*
X163790609Y-108620814D01*
X163790602Y-108620827D01*
X163730264Y-108766498D01*
X163730261Y-108766510D01*
X163699500Y-108921153D01*
X163699500Y-109078846D01*
X163730261Y-109233489D01*
X163730264Y-109233501D01*
X163790602Y-109379172D01*
X163790609Y-109379185D01*
X163878210Y-109510288D01*
X163878213Y-109510292D01*
X163989707Y-109621786D01*
X163989711Y-109621789D01*
X164120814Y-109709390D01*
X164120827Y-109709397D01*
X164266498Y-109769735D01*
X164266503Y-109769737D01*
X164421153Y-109800499D01*
X164421156Y-109800500D01*
X164421158Y-109800500D01*
X164578844Y-109800500D01*
X164578845Y-109800499D01*
X164733497Y-109769737D01*
X164879179Y-109709394D01*
X165010289Y-109621789D01*
X165121789Y-109510289D01*
X165209394Y-109379179D01*
X165269737Y-109233497D01*
X165300500Y-109078842D01*
X165300500Y-108921158D01*
X165300500Y-108921155D01*
X165300499Y-108921153D01*
X165269738Y-108766510D01*
X165269737Y-108766503D01*
X165250000Y-108718853D01*
X165209397Y-108620827D01*
X165209390Y-108620814D01*
X165121398Y-108489125D01*
X165100520Y-108422447D01*
X165100500Y-108420234D01*
X165100500Y-104589059D01*
X165100501Y-104589046D01*
X165100501Y-104420945D01*
X165100501Y-104420943D01*
X165059577Y-104268215D01*
X165030639Y-104218095D01*
X164980520Y-104131284D01*
X164868716Y-104019480D01*
X164868715Y-104019479D01*
X164864385Y-104015149D01*
X164864374Y-104015139D01*
X157546319Y-96697084D01*
X157512834Y-96635761D01*
X157510000Y-96609403D01*
X157510000Y-95664560D01*
X157563147Y-95695245D01*
X157692857Y-95730000D01*
X157827143Y-95730000D01*
X157956853Y-95695245D01*
X158010000Y-95664560D01*
X158010000Y-96570000D01*
G37*
%TD.AperFunction*%
%TD*%
M02*
